G04 #@! TF.GenerationSoftware,KiCad,Pcbnew,(5.0.0)*
G04 #@! TF.CreationDate,2018-11-08T23:55:30+01:00*
G04 #@! TF.ProjectId,ESPAIO,45535041494F2E6B696361645F706362,rev?*
G04 #@! TF.SameCoordinates,Original*
G04 #@! TF.FileFunction,Profile,NP*
%FSLAX46Y46*%
G04 Gerber Fmt 4.6, Leading zero omitted, Abs format (unit mm)*
G04 Created by KiCad (PCBNEW (5.0.0)) date 11/08/18 23:55:30*
%MOMM*%
%LPD*%
G01*
G04 APERTURE LIST*
%ADD10C,0.200000*%
G04 APERTURE END LIST*
D10*
X100266500Y-105600500D02*
X100266500Y-102108000D01*
X107315000Y-105600500D02*
X100266500Y-105600500D01*
X107315000Y-104775000D02*
X107315000Y-105600500D01*
X101092000Y-104775000D02*
X107315000Y-104775000D01*
X101092000Y-102108000D02*
X101092000Y-104775000D01*
X100266500Y-102108000D02*
X101092000Y-102108000D01*
X88900000Y-105918000D02*
X90043000Y-104775000D01*
X89725500Y-106426000D02*
X90551000Y-105600500D01*
X100965000Y-91821000D02*
X100965000Y-100965000D01*
X99441000Y-91630500D02*
X100139500Y-92329000D01*
X99949000Y-90805000D02*
X100965000Y-91821000D01*
X95250000Y-91821000D02*
X96266000Y-90805000D01*
X96075500Y-92329000D02*
X96774000Y-91630500D01*
X96266000Y-90805000D02*
X99949000Y-90805000D01*
X95250000Y-100965000D02*
X95250000Y-91821000D01*
X100139500Y-100965000D02*
X100965000Y-100965000D01*
X100139500Y-92329000D02*
X100139500Y-100965000D01*
X96774000Y-91630500D02*
X99441000Y-91630500D01*
X96075500Y-100965000D02*
X96075500Y-92329000D01*
X95250000Y-100965000D02*
X96075500Y-100965000D01*
X88900000Y-105918000D02*
X88900000Y-107950000D01*
X94996000Y-104775000D02*
X90043000Y-104775000D01*
X94996000Y-103632000D02*
X94996000Y-104775000D01*
X95821500Y-103632000D02*
X94996000Y-103632000D01*
X95821500Y-105600500D02*
X95821500Y-103632000D01*
X90551000Y-105600500D02*
X95821500Y-105600500D01*
X89725500Y-107950000D02*
X89725500Y-106426000D01*
X88900000Y-107950000D02*
X89725500Y-107950000D01*
X70612000Y-108585000D02*
X85217000Y-108585000D01*
X85217000Y-109410500D02*
X71437500Y-109410500D01*
X71437500Y-112458500D02*
X71437500Y-109410500D01*
X63500000Y-112458500D02*
X71437500Y-112458500D01*
X85217000Y-108585000D02*
X85217000Y-109410500D01*
X70612000Y-111633000D02*
X70612000Y-108585000D01*
X63500000Y-111633000D02*
X70612000Y-111633000D01*
X63500000Y-112458500D02*
X63500000Y-111633000D01*
X100076000Y-106489500D02*
X100901500Y-106489500D01*
X94361000Y-106489500D02*
X95186500Y-106489500D01*
X91186000Y-119888000D02*
X92011500Y-119888000D01*
X86233000Y-119888000D02*
X87058500Y-119888000D01*
X100076000Y-108077000D02*
X100076000Y-106489500D01*
X100901500Y-108331000D02*
X92011500Y-117221000D01*
X91186000Y-116967000D02*
X100076000Y-108077000D01*
X100901500Y-106489500D02*
X100901500Y-108331000D01*
X91186000Y-119888000D02*
X91186000Y-116967000D01*
X92011500Y-119888000D02*
X92011500Y-117221000D01*
X95186500Y-108394500D02*
X87058500Y-116522500D01*
X95186500Y-106489500D02*
X95186500Y-108394500D01*
X94361000Y-108077000D02*
X94361000Y-106489500D01*
X86233000Y-116205000D02*
X94361000Y-108077000D01*
X86233000Y-119888000D02*
X86233000Y-116205000D01*
X87058500Y-119888000D02*
X87058500Y-116522500D01*
X70510501Y-121635125D02*
G75*
G02X59010501Y-100593500I13499999J21041625D01*
G01*
X59010500Y-100593500D02*
G75*
G02X97510500Y-121635125I25000000J0D01*
G01*
X70510501Y-121635125D02*
X97510500Y-121635125D01*
M02*
