M48
;DRILL file {KiCad (5.0.0)} date 11/08/18 23:55:32
;FORMAT={-:-/ absolute / inch / decimal}
FMAT,2
INCH,TZ
T1C0.0157
T2C0.0236
T3C0.0256
T4C0.0394
T5C0.0492
T6C0.0512
T7C0.0598
%
G90
G05
M72
T1
X2.36Y-3.925
X2.38Y-4.15
X2.395Y-3.7
X2.425Y-4.14
X2.47Y-3.81
X2.4812Y-3.8876
X2.49Y-3.965
X2.5Y-3.64
X2.56Y-4.15
X2.5919Y-4.2456
X2.5934Y-3.33
X2.6Y-4.3743
X2.6125Y-4.095
X2.64Y-3.33
X2.6792Y-4.32
X2.7052Y-4.3743
X2.741Y-4.0997
X2.75Y-4.165
X2.75Y-4.05
X2.84Y-4.2
X2.86Y-3.525
X2.87Y-4.165
X2.875Y-4.095
X2.9Y-3.525
X2.94Y-3.525
X3.055Y-3.475
X3.12Y-3.245
X3.135Y-3.875
X3.155Y-3.145
X3.155Y-3.62
X3.16Y-3.93
X3.275Y-3.71
X3.275Y-3.75
X3.275Y-3.79
X3.3Y-3.165
X3.3Y-3.475
X3.35Y-3.465
X3.39Y-3.635
X3.495Y-4.04
X3.54Y-3.445
X3.545Y-3.4
X3.56Y-3.145
X3.57Y-3.115
X3.59Y-3.365
X3.785Y-3.415
X3.785Y-3.5
X3.81Y-3.24
X3.83Y-3.165
X3.835Y-3.215
X3.855Y-3.365
X4.0252Y-3.995
X4.055Y-3.38
X4.145Y-3.535
T2
X2.47Y-3.53
X3.13Y-3.08
X2.5869Y-4.515
X2.7224Y-4.6578
T3
X3.32Y-3.07
X3.37Y-3.07
X3.42Y-3.07
X3.47Y-3.07
X3.52Y-3.07
T4
X3.6243Y-3.7643
X4.0968Y-3.7643
T5
X2.8444Y-3.2388
X3.0491Y-4.3962
X3.2459Y-4.3962
X3.4506Y-3.2388
T6
X3.6243Y-4.2446
X3.8625Y-3.6875
X4.0987Y-4.2466
T7
X2.9075Y-4.64
X3.1075Y-4.64
X3.3075Y-4.64
X3.5075Y-4.64
X3.7075Y-4.64
X3.69Y-3.455
X3.89Y-3.455
T0
M30
