G04 #@! TF.GenerationSoftware,KiCad,Pcbnew,(5.0.0)*
G04 #@! TF.CreationDate,2018-11-08T23:55:30+01:00*
G04 #@! TF.ProjectId,ESPAIO,45535041494F2E6B696361645F706362,rev?*
G04 #@! TF.SameCoordinates,Original*
G04 #@! TF.FileFunction,Copper,L1,Top,Signal*
G04 #@! TF.FilePolarity,Positive*
%FSLAX46Y46*%
G04 Gerber Fmt 4.6, Leading zero omitted, Abs format (unit mm)*
G04 Created by KiCad (PCBNEW (5.0.0)) date 11/08/18 23:55:30*
%MOMM*%
%LPD*%
G01*
G04 APERTURE LIST*
G04 #@! TA.AperFunction,NonConductor*
%ADD10C,0.200000*%
G04 #@! TD*
G04 #@! TA.AperFunction,ComponentPad*
%ADD11R,3.000000X3.000000*%
G04 #@! TD*
G04 #@! TA.AperFunction,ComponentPad*
%ADD12C,3.000000*%
G04 #@! TD*
G04 #@! TA.AperFunction,ComponentPad*
%ADD13C,1.600000*%
G04 #@! TD*
G04 #@! TA.AperFunction,SMDPad,CuDef*
%ADD14R,0.600000X1.550000*%
G04 #@! TD*
G04 #@! TA.AperFunction,ComponentPad*
%ADD15C,2.200000*%
G04 #@! TD*
G04 #@! TA.AperFunction,ComponentPad*
%ADD16C,2.500000*%
G04 #@! TD*
G04 #@! TA.AperFunction,Conductor*
%ADD17C,0.100000*%
G04 #@! TD*
G04 #@! TA.AperFunction,SMDPad,CuDef*
%ADD18C,0.975000*%
G04 #@! TD*
G04 #@! TA.AperFunction,ComponentPad*
%ADD19R,1.000000X1.000000*%
G04 #@! TD*
G04 #@! TA.AperFunction,ComponentPad*
%ADD20O,1.000000X1.000000*%
G04 #@! TD*
G04 #@! TA.AperFunction,ViaPad*
%ADD21C,0.600000*%
G04 #@! TD*
G04 #@! TA.AperFunction,ViaPad*
%ADD22C,1.000000*%
G04 #@! TD*
G04 #@! TA.AperFunction,Conductor*
%ADD23C,0.400000*%
G04 #@! TD*
G04 #@! TA.AperFunction,Conductor*
%ADD24C,1.000000*%
G04 #@! TD*
G04 #@! TA.AperFunction,Conductor*
%ADD25C,0.250000*%
G04 #@! TD*
G04 #@! TA.AperFunction,Conductor*
%ADD26C,0.254000*%
G04 #@! TD*
G04 APERTURE END LIST*
D10*
X100266500Y-105600500D02*
X100266500Y-102108000D01*
X107315000Y-105600500D02*
X100266500Y-105600500D01*
X107315000Y-104775000D02*
X107315000Y-105600500D01*
X101092000Y-104775000D02*
X107315000Y-104775000D01*
X101092000Y-102108000D02*
X101092000Y-104775000D01*
X100266500Y-102108000D02*
X101092000Y-102108000D01*
X88900000Y-105918000D02*
X90043000Y-104775000D01*
X89725500Y-106426000D02*
X90551000Y-105600500D01*
X100965000Y-91821000D02*
X100965000Y-100965000D01*
X99441000Y-91630500D02*
X100139500Y-92329000D01*
X99949000Y-90805000D02*
X100965000Y-91821000D01*
X95250000Y-91821000D02*
X96266000Y-90805000D01*
X96075500Y-92329000D02*
X96774000Y-91630500D01*
X96266000Y-90805000D02*
X99949000Y-90805000D01*
X95250000Y-100965000D02*
X95250000Y-91821000D01*
X100139500Y-100965000D02*
X100965000Y-100965000D01*
X100139500Y-92329000D02*
X100139500Y-100965000D01*
X96774000Y-91630500D02*
X99441000Y-91630500D01*
X96075500Y-100965000D02*
X96075500Y-92329000D01*
X95250000Y-100965000D02*
X96075500Y-100965000D01*
X88900000Y-105918000D02*
X88900000Y-107950000D01*
X94996000Y-104775000D02*
X90043000Y-104775000D01*
X94996000Y-103632000D02*
X94996000Y-104775000D01*
X95821500Y-103632000D02*
X94996000Y-103632000D01*
X95821500Y-105600500D02*
X95821500Y-103632000D01*
X90551000Y-105600500D02*
X95821500Y-105600500D01*
X89725500Y-107950000D02*
X89725500Y-106426000D01*
X88900000Y-107950000D02*
X89725500Y-107950000D01*
X70612000Y-108585000D02*
X85217000Y-108585000D01*
X85217000Y-109410500D02*
X71437500Y-109410500D01*
X71437500Y-112458500D02*
X71437500Y-109410500D01*
X63500000Y-112458500D02*
X71437500Y-112458500D01*
X85217000Y-108585000D02*
X85217000Y-109410500D01*
X70612000Y-111633000D02*
X70612000Y-108585000D01*
X63500000Y-111633000D02*
X70612000Y-111633000D01*
X63500000Y-112458500D02*
X63500000Y-111633000D01*
X100076000Y-106489500D02*
X100901500Y-106489500D01*
X94361000Y-106489500D02*
X95186500Y-106489500D01*
X91186000Y-119888000D02*
X92011500Y-119888000D01*
X86233000Y-119888000D02*
X87058500Y-119888000D01*
X100076000Y-108077000D02*
X100076000Y-106489500D01*
X100901500Y-108331000D02*
X92011500Y-117221000D01*
X91186000Y-116967000D02*
X100076000Y-108077000D01*
X100901500Y-106489500D02*
X100901500Y-108331000D01*
X91186000Y-119888000D02*
X91186000Y-116967000D01*
X92011500Y-119888000D02*
X92011500Y-117221000D01*
X95186500Y-108394500D02*
X87058500Y-116522500D01*
X95186500Y-106489500D02*
X95186500Y-108394500D01*
X94361000Y-108077000D02*
X94361000Y-106489500D01*
X86233000Y-116205000D02*
X94361000Y-108077000D01*
X86233000Y-119888000D02*
X86233000Y-116205000D01*
X87058500Y-119888000D02*
X87058500Y-116522500D01*
X70510501Y-121635125D02*
G75*
G02X59010501Y-100593500I13499999J21041625D01*
G01*
X59010500Y-100593500D02*
G75*
G02X97510500Y-121635125I25000000J0D01*
G01*
X70510501Y-121635125D02*
X97510500Y-121635125D01*
D11*
G04 #@! TO.P,J1,1*
G04 #@! TO.N,GND*
X98806000Y-87757000D03*
D12*
G04 #@! TO.P,J1,2*
G04 #@! TO.N,/GPIO4*
X93726000Y-87757000D03*
G04 #@! TD*
D13*
G04 #@! TO.P,V1,1*
G04 #@! TO.N,Net-(10D471K1-Pad1)*
X65706387Y-114681000D03*
G04 #@! TO.P,V1,2*
G04 #@! TO.N,/NEUTRAL*
X69148160Y-118307872D03*
G04 #@! TD*
D14*
G04 #@! TO.P,U4,1*
G04 #@! TO.N,+5V*
X69215000Y-102870000D03*
G04 #@! TO.P,U4,2*
G04 #@! TO.N,Net-(C6-Pad1)*
X67945000Y-102870000D03*
G04 #@! TO.P,U4,3*
G04 #@! TO.N,Net-(C7-Pad1)*
X66675000Y-102870000D03*
G04 #@! TO.P,U4,4*
G04 #@! TO.N,/V2P*
X65405000Y-102870000D03*
G04 #@! TO.P,U4,5*
G04 #@! TO.N,GND*
X65405000Y-108270000D03*
G04 #@! TO.P,U4,6*
G04 #@! TO.N,Net-(R19-Pad1)*
X66675000Y-108270000D03*
G04 #@! TO.P,U4,7*
G04 #@! TO.N,Net-(R20-Pad2)*
X67945000Y-108270000D03*
G04 #@! TO.P,U4,8*
G04 #@! TO.N,Net-(Q2-Pad3)*
X69215000Y-108270000D03*
G04 #@! TD*
D15*
G04 #@! TO.P,U1,1*
G04 #@! TO.N,Net-(10D471K1-Pad1)*
X77446500Y-111664500D03*
G04 #@! TO.P,U1,2*
G04 #@! TO.N,/NEUTRAL*
X82446500Y-111664500D03*
G04 #@! TO.P,U1,3*
G04 #@! TO.N,GND*
X72246500Y-82264500D03*
G04 #@! TO.P,U1,4*
G04 #@! TO.N,+5V*
X87646500Y-82264500D03*
G04 #@! TD*
D16*
G04 #@! TO.P,K1,2*
G04 #@! TO.N,+5V*
X92057500Y-95612500D03*
D12*
G04 #@! TO.P,K1,3*
G04 #@! TO.N,/NC*
X92057500Y-107812500D03*
G04 #@! TO.P,K1,4*
G04 #@! TO.N,/NO*
X104107500Y-107862500D03*
D16*
G04 #@! TO.P,K1,5*
G04 #@! TO.N,Net-(D2-Pad2)*
X104057500Y-95612500D03*
D12*
G04 #@! TO.P,K1,1*
G04 #@! TO.N,/LINE_L*
X98107500Y-93662500D03*
G04 #@! TD*
D17*
G04 #@! TO.N,/GPIO14*
G04 #@! TO.C,R19*
G36*
X62837142Y-99238674D02*
X62860803Y-99242184D01*
X62884007Y-99247996D01*
X62906529Y-99256054D01*
X62928153Y-99266282D01*
X62948670Y-99278579D01*
X62967883Y-99292829D01*
X62985607Y-99308893D01*
X63001671Y-99326617D01*
X63015921Y-99345830D01*
X63028218Y-99366347D01*
X63038446Y-99387971D01*
X63046504Y-99410493D01*
X63052316Y-99433697D01*
X63055826Y-99457358D01*
X63057000Y-99481250D01*
X63057000Y-99968750D01*
X63055826Y-99992642D01*
X63052316Y-100016303D01*
X63046504Y-100039507D01*
X63038446Y-100062029D01*
X63028218Y-100083653D01*
X63015921Y-100104170D01*
X63001671Y-100123383D01*
X62985607Y-100141107D01*
X62967883Y-100157171D01*
X62948670Y-100171421D01*
X62928153Y-100183718D01*
X62906529Y-100193946D01*
X62884007Y-100202004D01*
X62860803Y-100207816D01*
X62837142Y-100211326D01*
X62813250Y-100212500D01*
X61900750Y-100212500D01*
X61876858Y-100211326D01*
X61853197Y-100207816D01*
X61829993Y-100202004D01*
X61807471Y-100193946D01*
X61785847Y-100183718D01*
X61765330Y-100171421D01*
X61746117Y-100157171D01*
X61728393Y-100141107D01*
X61712329Y-100123383D01*
X61698079Y-100104170D01*
X61685782Y-100083653D01*
X61675554Y-100062029D01*
X61667496Y-100039507D01*
X61661684Y-100016303D01*
X61658174Y-99992642D01*
X61657000Y-99968750D01*
X61657000Y-99481250D01*
X61658174Y-99457358D01*
X61661684Y-99433697D01*
X61667496Y-99410493D01*
X61675554Y-99387971D01*
X61685782Y-99366347D01*
X61698079Y-99345830D01*
X61712329Y-99326617D01*
X61728393Y-99308893D01*
X61746117Y-99292829D01*
X61765330Y-99278579D01*
X61785847Y-99266282D01*
X61807471Y-99256054D01*
X61829993Y-99247996D01*
X61853197Y-99242184D01*
X61876858Y-99238674D01*
X61900750Y-99237500D01*
X62813250Y-99237500D01*
X62837142Y-99238674D01*
X62837142Y-99238674D01*
G37*
D18*
G04 #@! TD*
G04 #@! TO.P,R19,2*
G04 #@! TO.N,/GPIO14*
X62357000Y-99725000D03*
D17*
G04 #@! TO.N,Net-(R19-Pad1)*
G04 #@! TO.C,R19*
G36*
X62837142Y-101113674D02*
X62860803Y-101117184D01*
X62884007Y-101122996D01*
X62906529Y-101131054D01*
X62928153Y-101141282D01*
X62948670Y-101153579D01*
X62967883Y-101167829D01*
X62985607Y-101183893D01*
X63001671Y-101201617D01*
X63015921Y-101220830D01*
X63028218Y-101241347D01*
X63038446Y-101262971D01*
X63046504Y-101285493D01*
X63052316Y-101308697D01*
X63055826Y-101332358D01*
X63057000Y-101356250D01*
X63057000Y-101843750D01*
X63055826Y-101867642D01*
X63052316Y-101891303D01*
X63046504Y-101914507D01*
X63038446Y-101937029D01*
X63028218Y-101958653D01*
X63015921Y-101979170D01*
X63001671Y-101998383D01*
X62985607Y-102016107D01*
X62967883Y-102032171D01*
X62948670Y-102046421D01*
X62928153Y-102058718D01*
X62906529Y-102068946D01*
X62884007Y-102077004D01*
X62860803Y-102082816D01*
X62837142Y-102086326D01*
X62813250Y-102087500D01*
X61900750Y-102087500D01*
X61876858Y-102086326D01*
X61853197Y-102082816D01*
X61829993Y-102077004D01*
X61807471Y-102068946D01*
X61785847Y-102058718D01*
X61765330Y-102046421D01*
X61746117Y-102032171D01*
X61728393Y-102016107D01*
X61712329Y-101998383D01*
X61698079Y-101979170D01*
X61685782Y-101958653D01*
X61675554Y-101937029D01*
X61667496Y-101914507D01*
X61661684Y-101891303D01*
X61658174Y-101867642D01*
X61657000Y-101843750D01*
X61657000Y-101356250D01*
X61658174Y-101332358D01*
X61661684Y-101308697D01*
X61667496Y-101285493D01*
X61675554Y-101262971D01*
X61685782Y-101241347D01*
X61698079Y-101220830D01*
X61712329Y-101201617D01*
X61728393Y-101183893D01*
X61746117Y-101167829D01*
X61765330Y-101153579D01*
X61785847Y-101141282D01*
X61807471Y-101131054D01*
X61829993Y-101122996D01*
X61853197Y-101117184D01*
X61876858Y-101113674D01*
X61900750Y-101112500D01*
X62813250Y-101112500D01*
X62837142Y-101113674D01*
X62837142Y-101113674D01*
G37*
D18*
G04 #@! TD*
G04 #@! TO.P,R19,1*
G04 #@! TO.N,Net-(R19-Pad1)*
X62357000Y-101600000D03*
D17*
G04 #@! TO.N,/GPIO13*
G04 #@! TO.C,R20*
G36*
X63980142Y-107669174D02*
X64003803Y-107672684D01*
X64027007Y-107678496D01*
X64049529Y-107686554D01*
X64071153Y-107696782D01*
X64091670Y-107709079D01*
X64110883Y-107723329D01*
X64128607Y-107739393D01*
X64144671Y-107757117D01*
X64158921Y-107776330D01*
X64171218Y-107796847D01*
X64181446Y-107818471D01*
X64189504Y-107840993D01*
X64195316Y-107864197D01*
X64198826Y-107887858D01*
X64200000Y-107911750D01*
X64200000Y-108399250D01*
X64198826Y-108423142D01*
X64195316Y-108446803D01*
X64189504Y-108470007D01*
X64181446Y-108492529D01*
X64171218Y-108514153D01*
X64158921Y-108534670D01*
X64144671Y-108553883D01*
X64128607Y-108571607D01*
X64110883Y-108587671D01*
X64091670Y-108601921D01*
X64071153Y-108614218D01*
X64049529Y-108624446D01*
X64027007Y-108632504D01*
X64003803Y-108638316D01*
X63980142Y-108641826D01*
X63956250Y-108643000D01*
X63043750Y-108643000D01*
X63019858Y-108641826D01*
X62996197Y-108638316D01*
X62972993Y-108632504D01*
X62950471Y-108624446D01*
X62928847Y-108614218D01*
X62908330Y-108601921D01*
X62889117Y-108587671D01*
X62871393Y-108571607D01*
X62855329Y-108553883D01*
X62841079Y-108534670D01*
X62828782Y-108514153D01*
X62818554Y-108492529D01*
X62810496Y-108470007D01*
X62804684Y-108446803D01*
X62801174Y-108423142D01*
X62800000Y-108399250D01*
X62800000Y-107911750D01*
X62801174Y-107887858D01*
X62804684Y-107864197D01*
X62810496Y-107840993D01*
X62818554Y-107818471D01*
X62828782Y-107796847D01*
X62841079Y-107776330D01*
X62855329Y-107757117D01*
X62871393Y-107739393D01*
X62889117Y-107723329D01*
X62908330Y-107709079D01*
X62928847Y-107696782D01*
X62950471Y-107686554D01*
X62972993Y-107678496D01*
X62996197Y-107672684D01*
X63019858Y-107669174D01*
X63043750Y-107668000D01*
X63956250Y-107668000D01*
X63980142Y-107669174D01*
X63980142Y-107669174D01*
G37*
D18*
G04 #@! TD*
G04 #@! TO.P,R20,1*
G04 #@! TO.N,/GPIO13*
X63500000Y-108155500D03*
D17*
G04 #@! TO.N,Net-(R20-Pad2)*
G04 #@! TO.C,R20*
G36*
X63980142Y-109544174D02*
X64003803Y-109547684D01*
X64027007Y-109553496D01*
X64049529Y-109561554D01*
X64071153Y-109571782D01*
X64091670Y-109584079D01*
X64110883Y-109598329D01*
X64128607Y-109614393D01*
X64144671Y-109632117D01*
X64158921Y-109651330D01*
X64171218Y-109671847D01*
X64181446Y-109693471D01*
X64189504Y-109715993D01*
X64195316Y-109739197D01*
X64198826Y-109762858D01*
X64200000Y-109786750D01*
X64200000Y-110274250D01*
X64198826Y-110298142D01*
X64195316Y-110321803D01*
X64189504Y-110345007D01*
X64181446Y-110367529D01*
X64171218Y-110389153D01*
X64158921Y-110409670D01*
X64144671Y-110428883D01*
X64128607Y-110446607D01*
X64110883Y-110462671D01*
X64091670Y-110476921D01*
X64071153Y-110489218D01*
X64049529Y-110499446D01*
X64027007Y-110507504D01*
X64003803Y-110513316D01*
X63980142Y-110516826D01*
X63956250Y-110518000D01*
X63043750Y-110518000D01*
X63019858Y-110516826D01*
X62996197Y-110513316D01*
X62972993Y-110507504D01*
X62950471Y-110499446D01*
X62928847Y-110489218D01*
X62908330Y-110476921D01*
X62889117Y-110462671D01*
X62871393Y-110446607D01*
X62855329Y-110428883D01*
X62841079Y-110409670D01*
X62828782Y-110389153D01*
X62818554Y-110367529D01*
X62810496Y-110345007D01*
X62804684Y-110321803D01*
X62801174Y-110298142D01*
X62800000Y-110274250D01*
X62800000Y-109786750D01*
X62801174Y-109762858D01*
X62804684Y-109739197D01*
X62810496Y-109715993D01*
X62818554Y-109693471D01*
X62828782Y-109671847D01*
X62841079Y-109651330D01*
X62855329Y-109632117D01*
X62871393Y-109614393D01*
X62889117Y-109598329D01*
X62908330Y-109584079D01*
X62928847Y-109571782D01*
X62950471Y-109561554D01*
X62972993Y-109553496D01*
X62996197Y-109547684D01*
X63019858Y-109544174D01*
X63043750Y-109543000D01*
X63956250Y-109543000D01*
X63980142Y-109544174D01*
X63980142Y-109544174D01*
G37*
D18*
G04 #@! TD*
G04 #@! TO.P,R20,2*
G04 #@! TO.N,Net-(R20-Pad2)*
X63500000Y-110030500D03*
D17*
G04 #@! TO.N,/GPIO14*
G04 #@! TO.C,R21*
G36*
X62837142Y-95096174D02*
X62860803Y-95099684D01*
X62884007Y-95105496D01*
X62906529Y-95113554D01*
X62928153Y-95123782D01*
X62948670Y-95136079D01*
X62967883Y-95150329D01*
X62985607Y-95166393D01*
X63001671Y-95184117D01*
X63015921Y-95203330D01*
X63028218Y-95223847D01*
X63038446Y-95245471D01*
X63046504Y-95267993D01*
X63052316Y-95291197D01*
X63055826Y-95314858D01*
X63057000Y-95338750D01*
X63057000Y-95826250D01*
X63055826Y-95850142D01*
X63052316Y-95873803D01*
X63046504Y-95897007D01*
X63038446Y-95919529D01*
X63028218Y-95941153D01*
X63015921Y-95961670D01*
X63001671Y-95980883D01*
X62985607Y-95998607D01*
X62967883Y-96014671D01*
X62948670Y-96028921D01*
X62928153Y-96041218D01*
X62906529Y-96051446D01*
X62884007Y-96059504D01*
X62860803Y-96065316D01*
X62837142Y-96068826D01*
X62813250Y-96070000D01*
X61900750Y-96070000D01*
X61876858Y-96068826D01*
X61853197Y-96065316D01*
X61829993Y-96059504D01*
X61807471Y-96051446D01*
X61785847Y-96041218D01*
X61765330Y-96028921D01*
X61746117Y-96014671D01*
X61728393Y-95998607D01*
X61712329Y-95980883D01*
X61698079Y-95961670D01*
X61685782Y-95941153D01*
X61675554Y-95919529D01*
X61667496Y-95897007D01*
X61661684Y-95873803D01*
X61658174Y-95850142D01*
X61657000Y-95826250D01*
X61657000Y-95338750D01*
X61658174Y-95314858D01*
X61661684Y-95291197D01*
X61667496Y-95267993D01*
X61675554Y-95245471D01*
X61685782Y-95223847D01*
X61698079Y-95203330D01*
X61712329Y-95184117D01*
X61728393Y-95166393D01*
X61746117Y-95150329D01*
X61765330Y-95136079D01*
X61785847Y-95123782D01*
X61807471Y-95113554D01*
X61829993Y-95105496D01*
X61853197Y-95099684D01*
X61876858Y-95096174D01*
X61900750Y-95095000D01*
X62813250Y-95095000D01*
X62837142Y-95096174D01*
X62837142Y-95096174D01*
G37*
D18*
G04 #@! TD*
G04 #@! TO.P,R21,2*
G04 #@! TO.N,/GPIO14*
X62357000Y-95582500D03*
D17*
G04 #@! TO.N,GND*
G04 #@! TO.C,R21*
G36*
X62837142Y-96971174D02*
X62860803Y-96974684D01*
X62884007Y-96980496D01*
X62906529Y-96988554D01*
X62928153Y-96998782D01*
X62948670Y-97011079D01*
X62967883Y-97025329D01*
X62985607Y-97041393D01*
X63001671Y-97059117D01*
X63015921Y-97078330D01*
X63028218Y-97098847D01*
X63038446Y-97120471D01*
X63046504Y-97142993D01*
X63052316Y-97166197D01*
X63055826Y-97189858D01*
X63057000Y-97213750D01*
X63057000Y-97701250D01*
X63055826Y-97725142D01*
X63052316Y-97748803D01*
X63046504Y-97772007D01*
X63038446Y-97794529D01*
X63028218Y-97816153D01*
X63015921Y-97836670D01*
X63001671Y-97855883D01*
X62985607Y-97873607D01*
X62967883Y-97889671D01*
X62948670Y-97903921D01*
X62928153Y-97916218D01*
X62906529Y-97926446D01*
X62884007Y-97934504D01*
X62860803Y-97940316D01*
X62837142Y-97943826D01*
X62813250Y-97945000D01*
X61900750Y-97945000D01*
X61876858Y-97943826D01*
X61853197Y-97940316D01*
X61829993Y-97934504D01*
X61807471Y-97926446D01*
X61785847Y-97916218D01*
X61765330Y-97903921D01*
X61746117Y-97889671D01*
X61728393Y-97873607D01*
X61712329Y-97855883D01*
X61698079Y-97836670D01*
X61685782Y-97816153D01*
X61675554Y-97794529D01*
X61667496Y-97772007D01*
X61661684Y-97748803D01*
X61658174Y-97725142D01*
X61657000Y-97701250D01*
X61657000Y-97213750D01*
X61658174Y-97189858D01*
X61661684Y-97166197D01*
X61667496Y-97142993D01*
X61675554Y-97120471D01*
X61685782Y-97098847D01*
X61698079Y-97078330D01*
X61712329Y-97059117D01*
X61728393Y-97041393D01*
X61746117Y-97025329D01*
X61765330Y-97011079D01*
X61785847Y-96998782D01*
X61807471Y-96988554D01*
X61829993Y-96980496D01*
X61853197Y-96974684D01*
X61876858Y-96971174D01*
X61900750Y-96970000D01*
X62813250Y-96970000D01*
X62837142Y-96971174D01*
X62837142Y-96971174D01*
G37*
D18*
G04 #@! TD*
G04 #@! TO.P,R21,1*
G04 #@! TO.N,GND*
X62357000Y-97457500D03*
D17*
G04 #@! TO.N,GND*
G04 #@! TO.C,R22*
G36*
X62837142Y-91032174D02*
X62860803Y-91035684D01*
X62884007Y-91041496D01*
X62906529Y-91049554D01*
X62928153Y-91059782D01*
X62948670Y-91072079D01*
X62967883Y-91086329D01*
X62985607Y-91102393D01*
X63001671Y-91120117D01*
X63015921Y-91139330D01*
X63028218Y-91159847D01*
X63038446Y-91181471D01*
X63046504Y-91203993D01*
X63052316Y-91227197D01*
X63055826Y-91250858D01*
X63057000Y-91274750D01*
X63057000Y-91762250D01*
X63055826Y-91786142D01*
X63052316Y-91809803D01*
X63046504Y-91833007D01*
X63038446Y-91855529D01*
X63028218Y-91877153D01*
X63015921Y-91897670D01*
X63001671Y-91916883D01*
X62985607Y-91934607D01*
X62967883Y-91950671D01*
X62948670Y-91964921D01*
X62928153Y-91977218D01*
X62906529Y-91987446D01*
X62884007Y-91995504D01*
X62860803Y-92001316D01*
X62837142Y-92004826D01*
X62813250Y-92006000D01*
X61900750Y-92006000D01*
X61876858Y-92004826D01*
X61853197Y-92001316D01*
X61829993Y-91995504D01*
X61807471Y-91987446D01*
X61785847Y-91977218D01*
X61765330Y-91964921D01*
X61746117Y-91950671D01*
X61728393Y-91934607D01*
X61712329Y-91916883D01*
X61698079Y-91897670D01*
X61685782Y-91877153D01*
X61675554Y-91855529D01*
X61667496Y-91833007D01*
X61661684Y-91809803D01*
X61658174Y-91786142D01*
X61657000Y-91762250D01*
X61657000Y-91274750D01*
X61658174Y-91250858D01*
X61661684Y-91227197D01*
X61667496Y-91203993D01*
X61675554Y-91181471D01*
X61685782Y-91159847D01*
X61698079Y-91139330D01*
X61712329Y-91120117D01*
X61728393Y-91102393D01*
X61746117Y-91086329D01*
X61765330Y-91072079D01*
X61785847Y-91059782D01*
X61807471Y-91049554D01*
X61829993Y-91041496D01*
X61853197Y-91035684D01*
X61876858Y-91032174D01*
X61900750Y-91031000D01*
X62813250Y-91031000D01*
X62837142Y-91032174D01*
X62837142Y-91032174D01*
G37*
D18*
G04 #@! TD*
G04 #@! TO.P,R22,1*
G04 #@! TO.N,GND*
X62357000Y-91518500D03*
D17*
G04 #@! TO.N,/GPIO13*
G04 #@! TO.C,R22*
G36*
X62837142Y-92907174D02*
X62860803Y-92910684D01*
X62884007Y-92916496D01*
X62906529Y-92924554D01*
X62928153Y-92934782D01*
X62948670Y-92947079D01*
X62967883Y-92961329D01*
X62985607Y-92977393D01*
X63001671Y-92995117D01*
X63015921Y-93014330D01*
X63028218Y-93034847D01*
X63038446Y-93056471D01*
X63046504Y-93078993D01*
X63052316Y-93102197D01*
X63055826Y-93125858D01*
X63057000Y-93149750D01*
X63057000Y-93637250D01*
X63055826Y-93661142D01*
X63052316Y-93684803D01*
X63046504Y-93708007D01*
X63038446Y-93730529D01*
X63028218Y-93752153D01*
X63015921Y-93772670D01*
X63001671Y-93791883D01*
X62985607Y-93809607D01*
X62967883Y-93825671D01*
X62948670Y-93839921D01*
X62928153Y-93852218D01*
X62906529Y-93862446D01*
X62884007Y-93870504D01*
X62860803Y-93876316D01*
X62837142Y-93879826D01*
X62813250Y-93881000D01*
X61900750Y-93881000D01*
X61876858Y-93879826D01*
X61853197Y-93876316D01*
X61829993Y-93870504D01*
X61807471Y-93862446D01*
X61785847Y-93852218D01*
X61765330Y-93839921D01*
X61746117Y-93825671D01*
X61728393Y-93809607D01*
X61712329Y-93791883D01*
X61698079Y-93772670D01*
X61685782Y-93752153D01*
X61675554Y-93730529D01*
X61667496Y-93708007D01*
X61661684Y-93684803D01*
X61658174Y-93661142D01*
X61657000Y-93637250D01*
X61657000Y-93149750D01*
X61658174Y-93125858D01*
X61661684Y-93102197D01*
X61667496Y-93078993D01*
X61675554Y-93056471D01*
X61685782Y-93034847D01*
X61698079Y-93014330D01*
X61712329Y-92995117D01*
X61728393Y-92977393D01*
X61746117Y-92961329D01*
X61765330Y-92947079D01*
X61785847Y-92934782D01*
X61807471Y-92924554D01*
X61829993Y-92916496D01*
X61853197Y-92910684D01*
X61876858Y-92907174D01*
X61900750Y-92906000D01*
X62813250Y-92906000D01*
X62837142Y-92907174D01*
X62837142Y-92907174D01*
G37*
D18*
G04 #@! TD*
G04 #@! TO.P,R22,2*
G04 #@! TO.N,/GPIO13*
X62357000Y-93393500D03*
D17*
G04 #@! TO.N,Net-(Q2-Pad3)*
G04 #@! TO.C,R4*
G36*
X69355642Y-109791174D02*
X69379303Y-109794684D01*
X69402507Y-109800496D01*
X69425029Y-109808554D01*
X69446653Y-109818782D01*
X69467170Y-109831079D01*
X69486383Y-109845329D01*
X69504107Y-109861393D01*
X69520171Y-109879117D01*
X69534421Y-109898330D01*
X69546718Y-109918847D01*
X69556946Y-109940471D01*
X69565004Y-109962993D01*
X69570816Y-109986197D01*
X69574326Y-110009858D01*
X69575500Y-110033750D01*
X69575500Y-110946250D01*
X69574326Y-110970142D01*
X69570816Y-110993803D01*
X69565004Y-111017007D01*
X69556946Y-111039529D01*
X69546718Y-111061153D01*
X69534421Y-111081670D01*
X69520171Y-111100883D01*
X69504107Y-111118607D01*
X69486383Y-111134671D01*
X69467170Y-111148921D01*
X69446653Y-111161218D01*
X69425029Y-111171446D01*
X69402507Y-111179504D01*
X69379303Y-111185316D01*
X69355642Y-111188826D01*
X69331750Y-111190000D01*
X68844250Y-111190000D01*
X68820358Y-111188826D01*
X68796697Y-111185316D01*
X68773493Y-111179504D01*
X68750971Y-111171446D01*
X68729347Y-111161218D01*
X68708830Y-111148921D01*
X68689617Y-111134671D01*
X68671893Y-111118607D01*
X68655829Y-111100883D01*
X68641579Y-111081670D01*
X68629282Y-111061153D01*
X68619054Y-111039529D01*
X68610996Y-111017007D01*
X68605184Y-110993803D01*
X68601674Y-110970142D01*
X68600500Y-110946250D01*
X68600500Y-110033750D01*
X68601674Y-110009858D01*
X68605184Y-109986197D01*
X68610996Y-109962993D01*
X68619054Y-109940471D01*
X68629282Y-109918847D01*
X68641579Y-109898330D01*
X68655829Y-109879117D01*
X68671893Y-109861393D01*
X68689617Y-109845329D01*
X68708830Y-109831079D01*
X68729347Y-109818782D01*
X68750971Y-109808554D01*
X68773493Y-109800496D01*
X68796697Y-109794684D01*
X68820358Y-109791174D01*
X68844250Y-109790000D01*
X69331750Y-109790000D01*
X69355642Y-109791174D01*
X69355642Y-109791174D01*
G37*
D18*
G04 #@! TD*
G04 #@! TO.P,R4,1*
G04 #@! TO.N,Net-(Q2-Pad3)*
X69088000Y-110490000D03*
D17*
G04 #@! TO.N,+5V*
G04 #@! TO.C,R4*
G36*
X67480642Y-109791174D02*
X67504303Y-109794684D01*
X67527507Y-109800496D01*
X67550029Y-109808554D01*
X67571653Y-109818782D01*
X67592170Y-109831079D01*
X67611383Y-109845329D01*
X67629107Y-109861393D01*
X67645171Y-109879117D01*
X67659421Y-109898330D01*
X67671718Y-109918847D01*
X67681946Y-109940471D01*
X67690004Y-109962993D01*
X67695816Y-109986197D01*
X67699326Y-110009858D01*
X67700500Y-110033750D01*
X67700500Y-110946250D01*
X67699326Y-110970142D01*
X67695816Y-110993803D01*
X67690004Y-111017007D01*
X67681946Y-111039529D01*
X67671718Y-111061153D01*
X67659421Y-111081670D01*
X67645171Y-111100883D01*
X67629107Y-111118607D01*
X67611383Y-111134671D01*
X67592170Y-111148921D01*
X67571653Y-111161218D01*
X67550029Y-111171446D01*
X67527507Y-111179504D01*
X67504303Y-111185316D01*
X67480642Y-111188826D01*
X67456750Y-111190000D01*
X66969250Y-111190000D01*
X66945358Y-111188826D01*
X66921697Y-111185316D01*
X66898493Y-111179504D01*
X66875971Y-111171446D01*
X66854347Y-111161218D01*
X66833830Y-111148921D01*
X66814617Y-111134671D01*
X66796893Y-111118607D01*
X66780829Y-111100883D01*
X66766579Y-111081670D01*
X66754282Y-111061153D01*
X66744054Y-111039529D01*
X66735996Y-111017007D01*
X66730184Y-110993803D01*
X66726674Y-110970142D01*
X66725500Y-110946250D01*
X66725500Y-110033750D01*
X66726674Y-110009858D01*
X66730184Y-109986197D01*
X66735996Y-109962993D01*
X66744054Y-109940471D01*
X66754282Y-109918847D01*
X66766579Y-109898330D01*
X66780829Y-109879117D01*
X66796893Y-109861393D01*
X66814617Y-109845329D01*
X66833830Y-109831079D01*
X66854347Y-109818782D01*
X66875971Y-109808554D01*
X66898493Y-109800496D01*
X66921697Y-109794684D01*
X66945358Y-109791174D01*
X66969250Y-109790000D01*
X67456750Y-109790000D01*
X67480642Y-109791174D01*
X67480642Y-109791174D01*
G37*
D18*
G04 #@! TD*
G04 #@! TO.P,R4,2*
G04 #@! TO.N,+5V*
X67213000Y-110490000D03*
D12*
G04 #@! TO.P,J3,2*
G04 #@! TO.N,/NEUTRAL*
X78930500Y-117856000D03*
G04 #@! TO.P,J3,3*
G04 #@! TO.N,/NC*
X84010500Y-117856000D03*
D11*
G04 #@! TO.P,J3,1*
G04 #@! TO.N,/LIVE*
X73850500Y-117856000D03*
D12*
G04 #@! TO.P,J3,4*
G04 #@! TO.N,/LINE_I*
X89090500Y-117856000D03*
G04 #@! TO.P,J3,5*
G04 #@! TO.N,/NO*
X94170500Y-117856000D03*
G04 #@! TD*
D19*
G04 #@! TO.P,J2,1*
G04 #@! TO.N,GND*
X84328000Y-77978000D03*
D20*
G04 #@! TO.P,J2,2*
G04 #@! TO.N,/GPIO9*
X85598000Y-77978000D03*
G04 #@! TO.P,J2,3*
G04 #@! TO.N,/TXD*
X86868000Y-77978000D03*
G04 #@! TO.P,J2,4*
G04 #@! TO.N,/RXD*
X88138000Y-77978000D03*
G04 #@! TO.P,J2,5*
G04 #@! TO.N,+5V*
X89408000Y-77978000D03*
G04 #@! TD*
D21*
G04 #@! TO.N,+3V3*
X85090000Y-88010996D03*
X79629000Y-98425000D03*
D22*
G04 #@! TO.N,GND*
X62738000Y-89662000D03*
D21*
X96774000Y-82296000D03*
X97409000Y-81661000D03*
X97282000Y-80391000D03*
X96139000Y-86741000D03*
X96139000Y-88900000D03*
X90678000Y-79121000D03*
X67056000Y-84582000D03*
X65873022Y-84582000D03*
X83185000Y-96266000D03*
X83185000Y-95250000D03*
X83185000Y-94234000D03*
X102997000Y-85852000D03*
X105283000Y-89789000D03*
X83820000Y-80391000D03*
D22*
X79502000Y-78232000D03*
D21*
X59944000Y-99695000D03*
X60452000Y-105410000D03*
X69622484Y-104133324D03*
X65024000Y-105410000D03*
X69850000Y-105791000D03*
X88773000Y-102615998D03*
X60833000Y-93980000D03*
X62738000Y-96774000D03*
X90424000Y-79883000D03*
X74676000Y-89535000D03*
X73660000Y-89535000D03*
X72644000Y-89535000D03*
X65834308Y-107838192D03*
G04 #@! TO.N,/GPIO4*
X89916000Y-87503000D03*
G04 #@! TO.N,/GPIO0*
X102240000Y-101473000D03*
X80264000Y-99822000D03*
G04 #@! TO.N,+5V*
X90043000Y-86360000D03*
X69850022Y-102870000D03*
X73025000Y-104013000D03*
X68051093Y-109728000D03*
G04 #@! TO.N,Net-(C6-Pad1)*
X63021323Y-98745020D03*
G04 #@! TO.N,Net-(C7-Pad1)*
X66357500Y-104013000D03*
G04 #@! TO.N,/V2P*
X72898000Y-105791000D03*
G04 #@! TO.N,/GPIO12*
X97917000Y-85471000D03*
X91185998Y-85471000D03*
G04 #@! TO.N,/TXD*
X79248000Y-82423000D03*
X80137000Y-79883000D03*
G04 #@! TO.N,/GPIO14*
X80137000Y-91948000D03*
G04 #@! TO.N,/GPIO13*
X63500000Y-92456000D03*
X77597000Y-88265000D03*
X83820000Y-88265000D03*
G04 #@! TO.N,Net-(JP1-Pad1)*
X72136000Y-106680000D03*
X63246000Y-100711000D03*
G04 #@! TO.N,Net-(Q2-Pad3)*
X66040000Y-111106000D03*
X61595000Y-105156000D03*
X68712774Y-111105990D03*
G04 #@! TO.N,/GPIO9*
X86106000Y-92329000D03*
G04 #@! TD*
D23*
G04 #@! TO.N,+3V3*
X85090000Y-88010996D02*
X79629000Y-93471996D01*
X79629000Y-93471996D02*
X79629000Y-98425000D01*
D24*
G04 #@! TO.N,GND*
X68229066Y-82264500D02*
X67090503Y-83292561D01*
X63476305Y-87788984D02*
X62738000Y-89085232D01*
X72246500Y-82264500D02*
X68229066Y-82264500D01*
X67090503Y-83292561D02*
X65873022Y-84582000D01*
X65767529Y-84693727D02*
X64560248Y-86195706D01*
X62738000Y-89085232D02*
X62738000Y-89662000D01*
X64560248Y-86195706D02*
X64403713Y-86425796D01*
X64403713Y-86425796D02*
X63476305Y-87788984D01*
X65873022Y-84582000D02*
X65767529Y-84693727D01*
D23*
X83820000Y-78486000D02*
X84328000Y-77978000D01*
X83820000Y-80391000D02*
X83820000Y-78486000D01*
D25*
X59944000Y-95719074D02*
X60134136Y-94776903D01*
X59944000Y-99695000D02*
X59944000Y-95719074D01*
X60134136Y-94776903D02*
X60173453Y-94639547D01*
X60173453Y-94639547D02*
X60833000Y-93980000D01*
X65405000Y-108270000D02*
X65405000Y-108267500D01*
X65405000Y-108267500D02*
X65834308Y-107838192D01*
X62357000Y-97155000D02*
X62738000Y-96774000D01*
X62357000Y-97457500D02*
X62357000Y-97155000D01*
X90296145Y-76838800D02*
X86402131Y-76838800D01*
X90678000Y-79121000D02*
X90678000Y-77220655D01*
X90678000Y-77220655D02*
X90296145Y-76838800D01*
X86402131Y-76838800D02*
X86151999Y-76588668D01*
X90678000Y-79121000D02*
X90977999Y-78821001D01*
X90977999Y-78821001D02*
X90977999Y-78023999D01*
X90977999Y-78023999D02*
X89916000Y-76962000D01*
X90678000Y-79121000D02*
X90678000Y-77533500D01*
X90678000Y-77533500D02*
X90106500Y-76962000D01*
X89852500Y-77025500D02*
X88773000Y-77025500D01*
X90977999Y-78821001D02*
X90977999Y-78150999D01*
X90977999Y-78150999D02*
X89852500Y-77025500D01*
G04 #@! TO.N,/GPIO4*
X90424000Y-86995000D02*
X89916000Y-87503000D01*
X93726000Y-87757000D02*
X92964000Y-86995000D01*
X92964000Y-86995000D02*
X90424000Y-86995000D01*
G04 #@! TO.N,/GPIO0*
X102240000Y-101473000D02*
X81915000Y-101473000D01*
X80563999Y-100121999D02*
X80264000Y-99822000D01*
X81915000Y-101473000D02*
X80563999Y-100121999D01*
G04 #@! TO.N,+5V*
X87646500Y-83963500D02*
X87646500Y-82264500D01*
X90043000Y-86360000D02*
X87646500Y-83963500D01*
X69215000Y-102870000D02*
X69850022Y-102870000D01*
X92057500Y-97380266D02*
X91186000Y-98251766D01*
X92057500Y-95612500D02*
X92057500Y-97380266D01*
X91186000Y-98251766D02*
X91186000Y-100330000D01*
X91186000Y-100330000D02*
X90551000Y-100965000D01*
X90551000Y-100965000D02*
X82677000Y-100965000D01*
X80908999Y-99196999D02*
X78603001Y-99196999D01*
X82677000Y-100965000D02*
X80908999Y-99196999D01*
X78603001Y-99196999D02*
X77343000Y-100457000D01*
X77343000Y-100457000D02*
X77343000Y-102489000D01*
X77343000Y-102489000D02*
X75819000Y-104013000D01*
X75819000Y-104013000D02*
X73025000Y-104013000D01*
X67213000Y-110363000D02*
X67416093Y-110363000D01*
X67416093Y-110363000D02*
X68051093Y-109728000D01*
X68051093Y-109728000D02*
X68057066Y-109722027D01*
G04 #@! TO.N,Net-(C6-Pad1)*
X63058020Y-98745020D02*
X63021323Y-98745020D01*
X63373000Y-99060000D02*
X63058020Y-98745020D01*
X63382010Y-99958010D02*
X63382010Y-99245660D01*
X63382010Y-99245660D02*
X63373000Y-99236650D01*
X67945000Y-103345000D02*
X66651999Y-104638001D01*
X63373000Y-99236650D02*
X63373000Y-99060000D01*
X66651999Y-104638001D02*
X65014001Y-104638001D01*
X63881000Y-103505000D02*
X63881000Y-100457000D01*
X65014001Y-104638001D02*
X63881000Y-103505000D01*
X67945000Y-102870000D02*
X67945000Y-103345000D01*
X63881000Y-100457000D02*
X63382010Y-99958010D01*
G04 #@! TO.N,Net-(C7-Pad1)*
X66675000Y-103695500D02*
X66357500Y-104013000D01*
X66675000Y-102870000D02*
X66675000Y-103695500D01*
G04 #@! TO.N,/V2P*
X65405000Y-102870000D02*
X65405000Y-102395000D01*
X72898000Y-105366736D02*
X72898000Y-105791000D01*
X72898000Y-104892998D02*
X72898000Y-105366736D01*
X69732002Y-101727000D02*
X72898000Y-104892998D01*
X66073000Y-101727000D02*
X69732002Y-101727000D01*
X65405000Y-102395000D02*
X66073000Y-101727000D01*
G04 #@! TO.N,/GPIO12*
X97917000Y-85471000D02*
X91185998Y-85471000D01*
G04 #@! TO.N,/TXD*
X80137000Y-81534000D02*
X80137000Y-79883000D01*
X79248000Y-82423000D02*
X80137000Y-81534000D01*
G04 #@! TO.N,Net-(R19-Pad1)*
X62738000Y-101981000D02*
X62357000Y-101600000D01*
X62738000Y-106045000D02*
X62738000Y-101981000D01*
X63754000Y-107061000D02*
X62738000Y-106045000D01*
X65941000Y-107061000D02*
X63754000Y-107061000D01*
X66675000Y-108270000D02*
X66675000Y-107795000D01*
X66675000Y-107795000D02*
X65941000Y-107061000D01*
G04 #@! TO.N,/GPIO14*
X61800763Y-96138737D02*
X62357000Y-95582500D01*
X61557000Y-99725000D02*
X61331990Y-99499990D01*
X61331990Y-96607510D02*
X61800763Y-96138737D01*
X61331990Y-99499990D02*
X61331990Y-96607510D01*
X62357000Y-99725000D02*
X61557000Y-99725000D01*
X65405000Y-101727000D02*
X65855010Y-101276990D01*
X65855010Y-101276990D02*
X70427010Y-101276990D01*
X64643000Y-101727000D02*
X65405000Y-101727000D01*
X62913237Y-96138737D02*
X63027739Y-96138737D01*
X62357000Y-95582500D02*
X62913237Y-96138737D01*
X63027739Y-96138737D02*
X63832020Y-96943018D01*
X64389000Y-101473000D02*
X64643000Y-101727000D01*
X63832020Y-96943018D02*
X63832020Y-99771610D01*
X63832020Y-99771610D02*
X64389000Y-100328590D01*
X64389000Y-100328590D02*
X64389000Y-101473000D01*
X80137000Y-91948000D02*
X78994000Y-93091000D01*
X75886600Y-101276990D02*
X70427010Y-101276990D01*
X78994000Y-98169590D02*
X75886600Y-101276990D01*
X78994000Y-93091000D02*
X78994000Y-98169590D01*
G04 #@! TO.N,/GPIO13*
X60833000Y-101580350D02*
X60833000Y-94917500D01*
X62230000Y-106885500D02*
X62230000Y-102977350D01*
X60833000Y-94917500D02*
X61800763Y-93949737D01*
X63500000Y-108155500D02*
X62230000Y-106885500D01*
X62230000Y-102977350D02*
X60833000Y-101580350D01*
X61800763Y-93949737D02*
X62357000Y-93393500D01*
X62357000Y-93393500D02*
X62562500Y-93393500D01*
X62562500Y-93393500D02*
X63500000Y-92456000D01*
X83820000Y-88265000D02*
X77597000Y-88265000D01*
G04 #@! TO.N,Net-(R20-Pad2)*
X64056237Y-109474263D02*
X63500000Y-110030500D01*
X64160499Y-109370001D02*
X64056237Y-109474263D01*
X67319999Y-109370001D02*
X64160499Y-109370001D01*
X67945000Y-108745000D02*
X67319999Y-109370001D01*
X67945000Y-108270000D02*
X67945000Y-108745000D01*
G04 #@! TO.N,Net-(JP1-Pad1)*
X71711736Y-106680000D02*
X71584736Y-106553000D01*
X72136000Y-106680000D02*
X71711736Y-106680000D01*
X71584736Y-106553000D02*
X64389000Y-106553000D01*
X64389000Y-106553000D02*
X63430989Y-105594989D01*
X63430989Y-100895989D02*
X63246000Y-100711000D01*
X63430989Y-105594989D02*
X63430989Y-100895989D01*
G04 #@! TO.N,Net-(Q2-Pad3)*
X69215000Y-108585000D02*
X69215000Y-108270000D01*
X68707000Y-111111764D02*
X68712774Y-111105990D01*
X68707000Y-111125000D02*
X68707000Y-111111764D01*
X68834000Y-111125000D02*
X68707000Y-111125000D01*
X69088000Y-110871000D02*
X68834000Y-111125000D01*
X69215000Y-108270000D02*
X69088000Y-108397000D01*
X69088000Y-108397000D02*
X69088000Y-110871000D01*
X66021000Y-111125000D02*
X66040000Y-111106000D01*
X63090150Y-111125000D02*
X66021000Y-111125000D01*
X61595000Y-105156000D02*
X61595000Y-109629850D01*
X61595000Y-109629850D02*
X63090150Y-111125000D01*
G04 #@! TO.N,/GPIO9*
X86106000Y-88101994D02*
X86106000Y-92329000D01*
X85598000Y-77978000D02*
X85598000Y-87593994D01*
X85598000Y-87593994D02*
X86106000Y-88101994D01*
G04 #@! TD*
D26*
G04 #@! TO.N,GND*
G36*
X65532000Y-108143000D02*
X65552000Y-108143000D01*
X65552000Y-108397000D01*
X65532000Y-108397000D01*
X65532000Y-108417000D01*
X65278000Y-108417000D01*
X65278000Y-108397000D01*
X65258000Y-108397000D01*
X65258000Y-108143000D01*
X65278000Y-108143000D01*
X65278000Y-108123000D01*
X65532000Y-108123000D01*
X65532000Y-108143000D01*
X65532000Y-108143000D01*
G37*
X65532000Y-108143000D02*
X65552000Y-108143000D01*
X65552000Y-108397000D01*
X65532000Y-108397000D01*
X65532000Y-108417000D01*
X65278000Y-108417000D01*
X65278000Y-108397000D01*
X65258000Y-108397000D01*
X65258000Y-108143000D01*
X65278000Y-108143000D01*
X65278000Y-108123000D01*
X65532000Y-108123000D01*
X65532000Y-108143000D01*
G36*
X60073000Y-101505503D02*
X60058112Y-101580350D01*
X60073000Y-101655197D01*
X60073000Y-101655201D01*
X60117096Y-101876886D01*
X60285071Y-102128279D01*
X60348530Y-102170681D01*
X61470001Y-103292154D01*
X61470001Y-104221000D01*
X61409017Y-104221000D01*
X61065365Y-104363345D01*
X60802345Y-104626365D01*
X60660000Y-104970017D01*
X60660000Y-105341983D01*
X60802345Y-105685635D01*
X60835000Y-105718290D01*
X60835001Y-107761785D01*
X60783692Y-107613333D01*
X60304519Y-105769324D01*
X59971508Y-103893430D01*
X59786333Y-101993391D01*
X59745918Y-100597282D01*
X59820866Y-98689735D01*
X60044801Y-96797709D01*
X60073001Y-96655942D01*
X60073000Y-101505503D01*
X60073000Y-101505503D01*
G37*
X60073000Y-101505503D02*
X60058112Y-101580350D01*
X60073000Y-101655197D01*
X60073000Y-101655201D01*
X60117096Y-101876886D01*
X60285071Y-102128279D01*
X60348530Y-102170681D01*
X61470001Y-103292154D01*
X61470001Y-104221000D01*
X61409017Y-104221000D01*
X61065365Y-104363345D01*
X60802345Y-104626365D01*
X60660000Y-104970017D01*
X60660000Y-105341983D01*
X60802345Y-105685635D01*
X60835000Y-105718290D01*
X60835001Y-107761785D01*
X60783692Y-107613333D01*
X60304519Y-105769324D01*
X59971508Y-103893430D01*
X59786333Y-101993391D01*
X59745918Y-100597282D01*
X59820866Y-98689735D01*
X60044801Y-96797709D01*
X60073001Y-96655942D01*
X60073000Y-101505503D01*
G36*
X71581855Y-104651656D02*
X70485423Y-104648001D01*
X70436791Y-104657506D01*
X70395497Y-104684899D01*
X70367830Y-104726008D01*
X70358000Y-104775000D01*
X70358000Y-105793000D01*
X64703802Y-105793000D01*
X64190989Y-105280188D01*
X64190989Y-104889791D01*
X64423674Y-105122476D01*
X64466072Y-105185930D01*
X64529525Y-105228328D01*
X64529527Y-105228330D01*
X64625574Y-105292506D01*
X64717464Y-105353905D01*
X64939149Y-105398001D01*
X64939153Y-105398001D01*
X65014000Y-105412889D01*
X65088847Y-105398001D01*
X66577152Y-105398001D01*
X66651999Y-105412889D01*
X66726846Y-105398001D01*
X66726851Y-105398001D01*
X66948536Y-105353905D01*
X67199928Y-105185930D01*
X67242330Y-105122471D01*
X68072362Y-104292440D01*
X68245000Y-104292440D01*
X68492765Y-104243157D01*
X68580000Y-104184868D01*
X68667235Y-104243157D01*
X68915000Y-104292440D01*
X69515000Y-104292440D01*
X69762765Y-104243157D01*
X69972809Y-104102809D01*
X70113157Y-103892765D01*
X70139109Y-103762293D01*
X70379657Y-103662655D01*
X70486256Y-103556056D01*
X71581855Y-104651656D01*
X71581855Y-104651656D01*
G37*
X71581855Y-104651656D02*
X70485423Y-104648001D01*
X70436791Y-104657506D01*
X70395497Y-104684899D01*
X70367830Y-104726008D01*
X70358000Y-104775000D01*
X70358000Y-105793000D01*
X64703802Y-105793000D01*
X64190989Y-105280188D01*
X64190989Y-104889791D01*
X64423674Y-105122476D01*
X64466072Y-105185930D01*
X64529525Y-105228328D01*
X64529527Y-105228330D01*
X64625574Y-105292506D01*
X64717464Y-105353905D01*
X64939149Y-105398001D01*
X64939153Y-105398001D01*
X65014000Y-105412889D01*
X65088847Y-105398001D01*
X66577152Y-105398001D01*
X66651999Y-105412889D01*
X66726846Y-105398001D01*
X66726851Y-105398001D01*
X66948536Y-105353905D01*
X67199928Y-105185930D01*
X67242330Y-105122471D01*
X68072362Y-104292440D01*
X68245000Y-104292440D01*
X68492765Y-104243157D01*
X68580000Y-104184868D01*
X68667235Y-104243157D01*
X68915000Y-104292440D01*
X69515000Y-104292440D01*
X69762765Y-104243157D01*
X69972809Y-104102809D01*
X70113157Y-103892765D01*
X70139109Y-103762293D01*
X70379657Y-103662655D01*
X70486256Y-103556056D01*
X71581855Y-104651656D01*
G36*
X79329000Y-100007983D02*
X79471345Y-100351635D01*
X79734365Y-100614655D01*
X80078017Y-100757000D01*
X80124199Y-100757000D01*
X81324670Y-101957472D01*
X81367071Y-102020929D01*
X81618463Y-102188904D01*
X81840148Y-102233000D01*
X81840153Y-102233000D01*
X81915000Y-102247888D01*
X81989847Y-102233000D01*
X89408000Y-102233000D01*
X89408000Y-104370553D01*
X89068609Y-104709945D01*
X76208068Y-104667076D01*
X76366929Y-104560929D01*
X76409331Y-104497470D01*
X77827476Y-103079327D01*
X77890929Y-103036929D01*
X77933327Y-102973476D01*
X77933329Y-102973474D01*
X78042977Y-102809373D01*
X78058904Y-102785537D01*
X78103000Y-102563852D01*
X78103000Y-102563848D01*
X78117888Y-102489001D01*
X78103000Y-102414154D01*
X78103000Y-100771801D01*
X78917803Y-99956999D01*
X79329000Y-99956999D01*
X79329000Y-100007983D01*
X79329000Y-100007983D01*
G37*
X79329000Y-100007983D02*
X79471345Y-100351635D01*
X79734365Y-100614655D01*
X80078017Y-100757000D01*
X80124199Y-100757000D01*
X81324670Y-101957472D01*
X81367071Y-102020929D01*
X81618463Y-102188904D01*
X81840148Y-102233000D01*
X81840153Y-102233000D01*
X81915000Y-102247888D01*
X81989847Y-102233000D01*
X89408000Y-102233000D01*
X89408000Y-104370553D01*
X89068609Y-104709945D01*
X76208068Y-104667076D01*
X76366929Y-104560929D01*
X76409331Y-104497470D01*
X77827476Y-103079327D01*
X77890929Y-103036929D01*
X77933327Y-102973476D01*
X77933329Y-102973474D01*
X78042977Y-102809373D01*
X78058904Y-102785537D01*
X78103000Y-102563852D01*
X78103000Y-102563848D01*
X78117888Y-102489001D01*
X78103000Y-102414154D01*
X78103000Y-100771801D01*
X78917803Y-99956999D01*
X79329000Y-99956999D01*
X79329000Y-100007983D01*
G36*
X85914265Y-76403866D02*
X87806291Y-76627801D01*
X89092191Y-76883583D01*
X88965145Y-76908854D01*
X88773000Y-77037241D01*
X88580855Y-76908854D01*
X88249783Y-76843000D01*
X88026217Y-76843000D01*
X87695145Y-76908854D01*
X87503000Y-77037241D01*
X87310855Y-76908854D01*
X86979783Y-76843000D01*
X86756217Y-76843000D01*
X86425145Y-76908854D01*
X86233000Y-77037241D01*
X86040855Y-76908854D01*
X85709783Y-76843000D01*
X85486217Y-76843000D01*
X85155145Y-76908854D01*
X85139130Y-76919555D01*
X84954310Y-76843000D01*
X84613750Y-76843000D01*
X84455000Y-77001750D01*
X84455000Y-77851000D01*
X84466027Y-77851000D01*
X84440765Y-77978000D01*
X84466027Y-78105000D01*
X84455000Y-78105000D01*
X84455000Y-78954250D01*
X84613750Y-79113000D01*
X84838000Y-79113000D01*
X84838001Y-87103341D01*
X84560365Y-87218341D01*
X84319036Y-87459670D01*
X84005983Y-87330000D01*
X83634017Y-87330000D01*
X83290365Y-87472345D01*
X83257710Y-87505000D01*
X78159290Y-87505000D01*
X78126635Y-87472345D01*
X77782983Y-87330000D01*
X77411017Y-87330000D01*
X77067365Y-87472345D01*
X76804345Y-87735365D01*
X76662000Y-88079017D01*
X76662000Y-88450983D01*
X76804345Y-88794635D01*
X77067365Y-89057655D01*
X77411017Y-89200000D01*
X77782983Y-89200000D01*
X78126635Y-89057655D01*
X78159290Y-89025000D01*
X82895128Y-89025000D01*
X80715709Y-91204419D01*
X80666635Y-91155345D01*
X80322983Y-91013000D01*
X79951017Y-91013000D01*
X79607365Y-91155345D01*
X79344345Y-91418365D01*
X79202000Y-91762017D01*
X79202000Y-91808198D01*
X78509530Y-92500669D01*
X78446071Y-92543071D01*
X78278096Y-92794464D01*
X78234000Y-93016149D01*
X78234000Y-93016153D01*
X78219112Y-93091000D01*
X78234000Y-93165847D01*
X78234001Y-97854787D01*
X75571799Y-100516990D01*
X69913500Y-100516990D01*
X69913500Y-85725000D01*
X69903833Y-85676399D01*
X69876303Y-85635197D01*
X69835101Y-85607667D01*
X69786500Y-85598000D01*
X64958189Y-85598000D01*
X65559684Y-84835007D01*
X66803578Y-83489368D01*
X71201237Y-83489368D01*
X71312141Y-83766599D01*
X71958093Y-84009823D01*
X72647953Y-83987336D01*
X73180859Y-83766599D01*
X73291763Y-83489368D01*
X72246500Y-82444105D01*
X71201237Y-83489368D01*
X66803578Y-83489368D01*
X66852954Y-83435954D01*
X68252007Y-82142684D01*
X68463326Y-81976093D01*
X70501177Y-81976093D01*
X70523664Y-82665953D01*
X70744401Y-83198859D01*
X71021632Y-83309763D01*
X72066895Y-82264500D01*
X72426105Y-82264500D01*
X73471368Y-83309763D01*
X73748599Y-83198859D01*
X73991823Y-82552907D01*
X73981527Y-82237017D01*
X78313000Y-82237017D01*
X78313000Y-82608983D01*
X78455345Y-82952635D01*
X78718365Y-83215655D01*
X79062017Y-83358000D01*
X79433983Y-83358000D01*
X79777635Y-83215655D01*
X80040655Y-82952635D01*
X80183000Y-82608983D01*
X80183000Y-82562801D01*
X80621473Y-82124329D01*
X80684929Y-82081929D01*
X80852904Y-81830537D01*
X80897000Y-81608852D01*
X80897000Y-81608847D01*
X80911888Y-81534000D01*
X80897000Y-81459153D01*
X80897000Y-80445290D01*
X80929655Y-80412635D01*
X81072000Y-80068983D01*
X81072000Y-79697017D01*
X80929655Y-79353365D01*
X80666635Y-79090345D01*
X80322983Y-78948000D01*
X79951017Y-78948000D01*
X79607365Y-79090345D01*
X79344345Y-79353365D01*
X79202000Y-79697017D01*
X79202000Y-80068983D01*
X79344345Y-80412635D01*
X79377001Y-80445291D01*
X79377000Y-81219198D01*
X79108199Y-81488000D01*
X79062017Y-81488000D01*
X78718365Y-81630345D01*
X78455345Y-81893365D01*
X78313000Y-82237017D01*
X73981527Y-82237017D01*
X73969336Y-81863047D01*
X73748599Y-81330141D01*
X73471368Y-81219237D01*
X72426105Y-82264500D01*
X72066895Y-82264500D01*
X71021632Y-81219237D01*
X70744401Y-81330141D01*
X70501177Y-81976093D01*
X68463326Y-81976093D01*
X69651222Y-81039632D01*
X71201237Y-81039632D01*
X72246500Y-82084895D01*
X73291763Y-81039632D01*
X73180859Y-80762401D01*
X72534907Y-80519177D01*
X71845047Y-80541664D01*
X71312141Y-80762401D01*
X71201237Y-81039632D01*
X69651222Y-81039632D01*
X69748227Y-80963160D01*
X71332360Y-79904675D01*
X72994681Y-78973731D01*
X74534748Y-78263750D01*
X83193000Y-78263750D01*
X83193000Y-78604309D01*
X83289673Y-78837698D01*
X83468301Y-79016327D01*
X83701690Y-79113000D01*
X84042250Y-79113000D01*
X84201000Y-78954250D01*
X84201000Y-78105000D01*
X83351750Y-78105000D01*
X83193000Y-78263750D01*
X74534748Y-78263750D01*
X74724898Y-78176090D01*
X76512376Y-77516654D01*
X77097290Y-77351691D01*
X83193000Y-77351691D01*
X83193000Y-77692250D01*
X83351750Y-77851000D01*
X84201000Y-77851000D01*
X84201000Y-77001750D01*
X84042250Y-76843000D01*
X83701690Y-76843000D01*
X83468301Y-76939673D01*
X83289673Y-77118302D01*
X83193000Y-77351691D01*
X77097290Y-77351691D01*
X78346087Y-76999494D01*
X80214707Y-76627802D01*
X82106734Y-76403866D01*
X84010500Y-76329067D01*
X85914265Y-76403866D01*
X85914265Y-76403866D01*
G37*
X85914265Y-76403866D02*
X87806291Y-76627801D01*
X89092191Y-76883583D01*
X88965145Y-76908854D01*
X88773000Y-77037241D01*
X88580855Y-76908854D01*
X88249783Y-76843000D01*
X88026217Y-76843000D01*
X87695145Y-76908854D01*
X87503000Y-77037241D01*
X87310855Y-76908854D01*
X86979783Y-76843000D01*
X86756217Y-76843000D01*
X86425145Y-76908854D01*
X86233000Y-77037241D01*
X86040855Y-76908854D01*
X85709783Y-76843000D01*
X85486217Y-76843000D01*
X85155145Y-76908854D01*
X85139130Y-76919555D01*
X84954310Y-76843000D01*
X84613750Y-76843000D01*
X84455000Y-77001750D01*
X84455000Y-77851000D01*
X84466027Y-77851000D01*
X84440765Y-77978000D01*
X84466027Y-78105000D01*
X84455000Y-78105000D01*
X84455000Y-78954250D01*
X84613750Y-79113000D01*
X84838000Y-79113000D01*
X84838001Y-87103341D01*
X84560365Y-87218341D01*
X84319036Y-87459670D01*
X84005983Y-87330000D01*
X83634017Y-87330000D01*
X83290365Y-87472345D01*
X83257710Y-87505000D01*
X78159290Y-87505000D01*
X78126635Y-87472345D01*
X77782983Y-87330000D01*
X77411017Y-87330000D01*
X77067365Y-87472345D01*
X76804345Y-87735365D01*
X76662000Y-88079017D01*
X76662000Y-88450983D01*
X76804345Y-88794635D01*
X77067365Y-89057655D01*
X77411017Y-89200000D01*
X77782983Y-89200000D01*
X78126635Y-89057655D01*
X78159290Y-89025000D01*
X82895128Y-89025000D01*
X80715709Y-91204419D01*
X80666635Y-91155345D01*
X80322983Y-91013000D01*
X79951017Y-91013000D01*
X79607365Y-91155345D01*
X79344345Y-91418365D01*
X79202000Y-91762017D01*
X79202000Y-91808198D01*
X78509530Y-92500669D01*
X78446071Y-92543071D01*
X78278096Y-92794464D01*
X78234000Y-93016149D01*
X78234000Y-93016153D01*
X78219112Y-93091000D01*
X78234000Y-93165847D01*
X78234001Y-97854787D01*
X75571799Y-100516990D01*
X69913500Y-100516990D01*
X69913500Y-85725000D01*
X69903833Y-85676399D01*
X69876303Y-85635197D01*
X69835101Y-85607667D01*
X69786500Y-85598000D01*
X64958189Y-85598000D01*
X65559684Y-84835007D01*
X66803578Y-83489368D01*
X71201237Y-83489368D01*
X71312141Y-83766599D01*
X71958093Y-84009823D01*
X72647953Y-83987336D01*
X73180859Y-83766599D01*
X73291763Y-83489368D01*
X72246500Y-82444105D01*
X71201237Y-83489368D01*
X66803578Y-83489368D01*
X66852954Y-83435954D01*
X68252007Y-82142684D01*
X68463326Y-81976093D01*
X70501177Y-81976093D01*
X70523664Y-82665953D01*
X70744401Y-83198859D01*
X71021632Y-83309763D01*
X72066895Y-82264500D01*
X72426105Y-82264500D01*
X73471368Y-83309763D01*
X73748599Y-83198859D01*
X73991823Y-82552907D01*
X73981527Y-82237017D01*
X78313000Y-82237017D01*
X78313000Y-82608983D01*
X78455345Y-82952635D01*
X78718365Y-83215655D01*
X79062017Y-83358000D01*
X79433983Y-83358000D01*
X79777635Y-83215655D01*
X80040655Y-82952635D01*
X80183000Y-82608983D01*
X80183000Y-82562801D01*
X80621473Y-82124329D01*
X80684929Y-82081929D01*
X80852904Y-81830537D01*
X80897000Y-81608852D01*
X80897000Y-81608847D01*
X80911888Y-81534000D01*
X80897000Y-81459153D01*
X80897000Y-80445290D01*
X80929655Y-80412635D01*
X81072000Y-80068983D01*
X81072000Y-79697017D01*
X80929655Y-79353365D01*
X80666635Y-79090345D01*
X80322983Y-78948000D01*
X79951017Y-78948000D01*
X79607365Y-79090345D01*
X79344345Y-79353365D01*
X79202000Y-79697017D01*
X79202000Y-80068983D01*
X79344345Y-80412635D01*
X79377001Y-80445291D01*
X79377000Y-81219198D01*
X79108199Y-81488000D01*
X79062017Y-81488000D01*
X78718365Y-81630345D01*
X78455345Y-81893365D01*
X78313000Y-82237017D01*
X73981527Y-82237017D01*
X73969336Y-81863047D01*
X73748599Y-81330141D01*
X73471368Y-81219237D01*
X72426105Y-82264500D01*
X72066895Y-82264500D01*
X71021632Y-81219237D01*
X70744401Y-81330141D01*
X70501177Y-81976093D01*
X68463326Y-81976093D01*
X69651222Y-81039632D01*
X71201237Y-81039632D01*
X72246500Y-82084895D01*
X73291763Y-81039632D01*
X73180859Y-80762401D01*
X72534907Y-80519177D01*
X71845047Y-80541664D01*
X71312141Y-80762401D01*
X71201237Y-81039632D01*
X69651222Y-81039632D01*
X69748227Y-80963160D01*
X71332360Y-79904675D01*
X72994681Y-78973731D01*
X74534748Y-78263750D01*
X83193000Y-78263750D01*
X83193000Y-78604309D01*
X83289673Y-78837698D01*
X83468301Y-79016327D01*
X83701690Y-79113000D01*
X84042250Y-79113000D01*
X84201000Y-78954250D01*
X84201000Y-78105000D01*
X83351750Y-78105000D01*
X83193000Y-78263750D01*
X74534748Y-78263750D01*
X74724898Y-78176090D01*
X76512376Y-77516654D01*
X77097290Y-77351691D01*
X83193000Y-77351691D01*
X83193000Y-77692250D01*
X83351750Y-77851000D01*
X84201000Y-77851000D01*
X84201000Y-77001750D01*
X84042250Y-76843000D01*
X83701690Y-76843000D01*
X83468301Y-76939673D01*
X83289673Y-77118302D01*
X83193000Y-77351691D01*
X77097290Y-77351691D01*
X78346087Y-76999494D01*
X80214707Y-76627802D01*
X82106734Y-76403866D01*
X84010500Y-76329067D01*
X85914265Y-76403866D01*
G36*
X91508624Y-77516654D02*
X93296102Y-78176090D01*
X95026313Y-78973728D01*
X96688640Y-79904675D01*
X98272773Y-80963160D01*
X99768993Y-82142684D01*
X101168046Y-83435954D01*
X102461316Y-84835007D01*
X103640840Y-86331227D01*
X104699325Y-87915360D01*
X105630269Y-89577681D01*
X105961880Y-90297000D01*
X100493541Y-90297000D01*
X100478905Y-90275095D01*
X100235783Y-90112646D01*
X100021388Y-90070000D01*
X100021384Y-90070000D01*
X99949000Y-90055602D01*
X99876616Y-90070000D01*
X96338384Y-90070000D01*
X96266000Y-90055602D01*
X96193616Y-90070000D01*
X96193612Y-90070000D01*
X95979217Y-90112646D01*
X95736095Y-90275095D01*
X95721458Y-90297000D01*
X89535000Y-90297000D01*
X89486399Y-90306667D01*
X89445197Y-90334197D01*
X89417667Y-90375399D01*
X89408000Y-90424000D01*
X89408000Y-100205000D01*
X82991802Y-100205000D01*
X81499330Y-98712529D01*
X81456928Y-98649070D01*
X81205536Y-98481095D01*
X80983851Y-98436999D01*
X80983846Y-98436999D01*
X80908999Y-98422111D01*
X80834152Y-98436999D01*
X80564000Y-98436999D01*
X80564000Y-98239017D01*
X80464000Y-97997595D01*
X80464000Y-93817863D01*
X85346000Y-88935865D01*
X85346001Y-91766709D01*
X85313345Y-91799365D01*
X85171000Y-92143017D01*
X85171000Y-92514983D01*
X85313345Y-92858635D01*
X85576365Y-93121655D01*
X85920017Y-93264000D01*
X86291983Y-93264000D01*
X86635635Y-93121655D01*
X86898655Y-92858635D01*
X87041000Y-92514983D01*
X87041000Y-92143017D01*
X86898655Y-91799365D01*
X86866000Y-91766710D01*
X86866000Y-88176840D01*
X86880888Y-88101993D01*
X86866000Y-88027146D01*
X86866000Y-88027142D01*
X86821904Y-87805457D01*
X86758726Y-87710904D01*
X86696329Y-87617520D01*
X86696327Y-87617518D01*
X86653929Y-87554065D01*
X86590475Y-87511667D01*
X86358000Y-87279192D01*
X86358000Y-83429661D01*
X86663701Y-83735362D01*
X86886500Y-83827648D01*
X86886500Y-83888653D01*
X86871612Y-83963500D01*
X86886500Y-84038347D01*
X86886500Y-84038351D01*
X86930596Y-84260036D01*
X87098571Y-84511429D01*
X87162030Y-84553831D01*
X89108000Y-86499802D01*
X89108000Y-86545983D01*
X89237672Y-86859038D01*
X89123345Y-86973365D01*
X88981000Y-87317017D01*
X88981000Y-87688983D01*
X89123345Y-88032635D01*
X89386365Y-88295655D01*
X89730017Y-88438000D01*
X90101983Y-88438000D01*
X90445635Y-88295655D01*
X90708655Y-88032635D01*
X90823655Y-87755000D01*
X91591000Y-87755000D01*
X91591000Y-88181678D01*
X91916034Y-88966380D01*
X92516620Y-89566966D01*
X93301322Y-89892000D01*
X94150678Y-89892000D01*
X94935380Y-89566966D01*
X95535966Y-88966380D01*
X95861000Y-88181678D01*
X95861000Y-88042750D01*
X96671000Y-88042750D01*
X96671000Y-89383310D01*
X96767673Y-89616699D01*
X96946302Y-89795327D01*
X97179691Y-89892000D01*
X98520250Y-89892000D01*
X98679000Y-89733250D01*
X98679000Y-87884000D01*
X98933000Y-87884000D01*
X98933000Y-89733250D01*
X99091750Y-89892000D01*
X100432309Y-89892000D01*
X100665698Y-89795327D01*
X100844327Y-89616699D01*
X100941000Y-89383310D01*
X100941000Y-88042750D01*
X100782250Y-87884000D01*
X98933000Y-87884000D01*
X98679000Y-87884000D01*
X96829750Y-87884000D01*
X96671000Y-88042750D01*
X95861000Y-88042750D01*
X95861000Y-87332322D01*
X95535966Y-86547620D01*
X95219346Y-86231000D01*
X96671000Y-86231000D01*
X96671000Y-87471250D01*
X96829750Y-87630000D01*
X98679000Y-87630000D01*
X98679000Y-87610000D01*
X98933000Y-87610000D01*
X98933000Y-87630000D01*
X100782250Y-87630000D01*
X100941000Y-87471250D01*
X100941000Y-86130690D01*
X100844327Y-85897301D01*
X100665698Y-85718673D01*
X100432309Y-85622000D01*
X99091750Y-85622000D01*
X98933002Y-85780748D01*
X98933002Y-85622000D01*
X98852000Y-85622000D01*
X98852000Y-85285017D01*
X98709655Y-84941365D01*
X98446635Y-84678345D01*
X98102983Y-84536000D01*
X97731017Y-84536000D01*
X97387365Y-84678345D01*
X97354710Y-84711000D01*
X91748288Y-84711000D01*
X91715633Y-84678345D01*
X91371981Y-84536000D01*
X91000015Y-84536000D01*
X90656363Y-84678345D01*
X90393343Y-84941365D01*
X90250998Y-85285017D01*
X90250998Y-85434119D01*
X90228983Y-85425000D01*
X90182802Y-85425000D01*
X88533036Y-83775235D01*
X88629299Y-83735362D01*
X89117362Y-83247299D01*
X89381500Y-82609613D01*
X89381500Y-81919387D01*
X89117362Y-81281701D01*
X88629299Y-80793638D01*
X87991613Y-80529500D01*
X87301387Y-80529500D01*
X86663701Y-80793638D01*
X86358000Y-81099339D01*
X86358000Y-79002281D01*
X86425145Y-79047146D01*
X86756217Y-79113000D01*
X86979783Y-79113000D01*
X87310855Y-79047146D01*
X87503000Y-78918759D01*
X87695145Y-79047146D01*
X88026217Y-79113000D01*
X88249783Y-79113000D01*
X88580855Y-79047146D01*
X88773000Y-78918759D01*
X88965145Y-79047146D01*
X89296217Y-79113000D01*
X89519783Y-79113000D01*
X89850855Y-79047146D01*
X90226289Y-78796289D01*
X90477146Y-78420855D01*
X90565235Y-77978000D01*
X90477146Y-77535145D01*
X90226289Y-77159711D01*
X90214084Y-77151556D01*
X91508624Y-77516654D01*
X91508624Y-77516654D01*
G37*
X91508624Y-77516654D02*
X93296102Y-78176090D01*
X95026313Y-78973728D01*
X96688640Y-79904675D01*
X98272773Y-80963160D01*
X99768993Y-82142684D01*
X101168046Y-83435954D01*
X102461316Y-84835007D01*
X103640840Y-86331227D01*
X104699325Y-87915360D01*
X105630269Y-89577681D01*
X105961880Y-90297000D01*
X100493541Y-90297000D01*
X100478905Y-90275095D01*
X100235783Y-90112646D01*
X100021388Y-90070000D01*
X100021384Y-90070000D01*
X99949000Y-90055602D01*
X99876616Y-90070000D01*
X96338384Y-90070000D01*
X96266000Y-90055602D01*
X96193616Y-90070000D01*
X96193612Y-90070000D01*
X95979217Y-90112646D01*
X95736095Y-90275095D01*
X95721458Y-90297000D01*
X89535000Y-90297000D01*
X89486399Y-90306667D01*
X89445197Y-90334197D01*
X89417667Y-90375399D01*
X89408000Y-90424000D01*
X89408000Y-100205000D01*
X82991802Y-100205000D01*
X81499330Y-98712529D01*
X81456928Y-98649070D01*
X81205536Y-98481095D01*
X80983851Y-98436999D01*
X80983846Y-98436999D01*
X80908999Y-98422111D01*
X80834152Y-98436999D01*
X80564000Y-98436999D01*
X80564000Y-98239017D01*
X80464000Y-97997595D01*
X80464000Y-93817863D01*
X85346000Y-88935865D01*
X85346001Y-91766709D01*
X85313345Y-91799365D01*
X85171000Y-92143017D01*
X85171000Y-92514983D01*
X85313345Y-92858635D01*
X85576365Y-93121655D01*
X85920017Y-93264000D01*
X86291983Y-93264000D01*
X86635635Y-93121655D01*
X86898655Y-92858635D01*
X87041000Y-92514983D01*
X87041000Y-92143017D01*
X86898655Y-91799365D01*
X86866000Y-91766710D01*
X86866000Y-88176840D01*
X86880888Y-88101993D01*
X86866000Y-88027146D01*
X86866000Y-88027142D01*
X86821904Y-87805457D01*
X86758726Y-87710904D01*
X86696329Y-87617520D01*
X86696327Y-87617518D01*
X86653929Y-87554065D01*
X86590475Y-87511667D01*
X86358000Y-87279192D01*
X86358000Y-83429661D01*
X86663701Y-83735362D01*
X86886500Y-83827648D01*
X86886500Y-83888653D01*
X86871612Y-83963500D01*
X86886500Y-84038347D01*
X86886500Y-84038351D01*
X86930596Y-84260036D01*
X87098571Y-84511429D01*
X87162030Y-84553831D01*
X89108000Y-86499802D01*
X89108000Y-86545983D01*
X89237672Y-86859038D01*
X89123345Y-86973365D01*
X88981000Y-87317017D01*
X88981000Y-87688983D01*
X89123345Y-88032635D01*
X89386365Y-88295655D01*
X89730017Y-88438000D01*
X90101983Y-88438000D01*
X90445635Y-88295655D01*
X90708655Y-88032635D01*
X90823655Y-87755000D01*
X91591000Y-87755000D01*
X91591000Y-88181678D01*
X91916034Y-88966380D01*
X92516620Y-89566966D01*
X93301322Y-89892000D01*
X94150678Y-89892000D01*
X94935380Y-89566966D01*
X95535966Y-88966380D01*
X95861000Y-88181678D01*
X95861000Y-88042750D01*
X96671000Y-88042750D01*
X96671000Y-89383310D01*
X96767673Y-89616699D01*
X96946302Y-89795327D01*
X97179691Y-89892000D01*
X98520250Y-89892000D01*
X98679000Y-89733250D01*
X98679000Y-87884000D01*
X98933000Y-87884000D01*
X98933000Y-89733250D01*
X99091750Y-89892000D01*
X100432309Y-89892000D01*
X100665698Y-89795327D01*
X100844327Y-89616699D01*
X100941000Y-89383310D01*
X100941000Y-88042750D01*
X100782250Y-87884000D01*
X98933000Y-87884000D01*
X98679000Y-87884000D01*
X96829750Y-87884000D01*
X96671000Y-88042750D01*
X95861000Y-88042750D01*
X95861000Y-87332322D01*
X95535966Y-86547620D01*
X95219346Y-86231000D01*
X96671000Y-86231000D01*
X96671000Y-87471250D01*
X96829750Y-87630000D01*
X98679000Y-87630000D01*
X98679000Y-87610000D01*
X98933000Y-87610000D01*
X98933000Y-87630000D01*
X100782250Y-87630000D01*
X100941000Y-87471250D01*
X100941000Y-86130690D01*
X100844327Y-85897301D01*
X100665698Y-85718673D01*
X100432309Y-85622000D01*
X99091750Y-85622000D01*
X98933002Y-85780748D01*
X98933002Y-85622000D01*
X98852000Y-85622000D01*
X98852000Y-85285017D01*
X98709655Y-84941365D01*
X98446635Y-84678345D01*
X98102983Y-84536000D01*
X97731017Y-84536000D01*
X97387365Y-84678345D01*
X97354710Y-84711000D01*
X91748288Y-84711000D01*
X91715633Y-84678345D01*
X91371981Y-84536000D01*
X91000015Y-84536000D01*
X90656363Y-84678345D01*
X90393343Y-84941365D01*
X90250998Y-85285017D01*
X90250998Y-85434119D01*
X90228983Y-85425000D01*
X90182802Y-85425000D01*
X88533036Y-83775235D01*
X88629299Y-83735362D01*
X89117362Y-83247299D01*
X89381500Y-82609613D01*
X89381500Y-81919387D01*
X89117362Y-81281701D01*
X88629299Y-80793638D01*
X87991613Y-80529500D01*
X87301387Y-80529500D01*
X86663701Y-80793638D01*
X86358000Y-81099339D01*
X86358000Y-79002281D01*
X86425145Y-79047146D01*
X86756217Y-79113000D01*
X86979783Y-79113000D01*
X87310855Y-79047146D01*
X87503000Y-78918759D01*
X87695145Y-79047146D01*
X88026217Y-79113000D01*
X88249783Y-79113000D01*
X88580855Y-79047146D01*
X88773000Y-78918759D01*
X88965145Y-79047146D01*
X89296217Y-79113000D01*
X89519783Y-79113000D01*
X89850855Y-79047146D01*
X90226289Y-78796289D01*
X90477146Y-78420855D01*
X90565235Y-77978000D01*
X90477146Y-77535145D01*
X90226289Y-77159711D01*
X90214084Y-77151556D01*
X91508624Y-77516654D01*
G36*
X62484000Y-97330500D02*
X62504000Y-97330500D01*
X62504000Y-97584500D01*
X62484000Y-97584500D01*
X62484000Y-97604500D01*
X62230000Y-97604500D01*
X62230000Y-97584500D01*
X62210000Y-97584500D01*
X62210000Y-97330500D01*
X62230000Y-97330500D01*
X62230000Y-97310500D01*
X62484000Y-97310500D01*
X62484000Y-97330500D01*
X62484000Y-97330500D01*
G37*
X62484000Y-97330500D02*
X62504000Y-97330500D01*
X62504000Y-97584500D01*
X62484000Y-97584500D01*
X62484000Y-97604500D01*
X62230000Y-97604500D01*
X62230000Y-97584500D01*
X62210000Y-97584500D01*
X62210000Y-97330500D01*
X62230000Y-97330500D01*
X62230000Y-97310500D01*
X62484000Y-97310500D01*
X62484000Y-97330500D01*
G36*
X61271767Y-92518793D02*
X61270584Y-92519584D01*
X61077398Y-92808706D01*
X61009560Y-93149750D01*
X61009560Y-93637250D01*
X61014353Y-93661345D01*
X60679633Y-93996065D01*
X60933654Y-93095376D01*
X61180162Y-92427187D01*
X61271767Y-92518793D01*
X61271767Y-92518793D01*
G37*
X61271767Y-92518793D02*
X61270584Y-92519584D01*
X61077398Y-92808706D01*
X61009560Y-93149750D01*
X61009560Y-93637250D01*
X61014353Y-93661345D01*
X60679633Y-93996065D01*
X60933654Y-93095376D01*
X61180162Y-92427187D01*
X61271767Y-92518793D01*
G36*
X63817500Y-91575476D02*
X63685983Y-91521000D01*
X63314017Y-91521000D01*
X63013447Y-91645500D01*
X62484000Y-91645500D01*
X62484000Y-91665500D01*
X62230000Y-91665500D01*
X62230000Y-91645500D01*
X62210000Y-91645500D01*
X62210000Y-91391500D01*
X62230000Y-91391500D01*
X62230000Y-90554750D01*
X62484000Y-90554750D01*
X62484000Y-91391500D01*
X63533250Y-91391500D01*
X63692000Y-91232750D01*
X63692000Y-90904691D01*
X63595327Y-90671302D01*
X63416699Y-90492673D01*
X63183310Y-90396000D01*
X62642750Y-90396000D01*
X62484000Y-90554750D01*
X62230000Y-90554750D01*
X62071250Y-90396000D01*
X62013480Y-90396000D01*
X62390728Y-89577687D01*
X63321675Y-87915360D01*
X63817500Y-87173306D01*
X63817500Y-91575476D01*
X63817500Y-91575476D01*
G37*
X63817500Y-91575476D02*
X63685983Y-91521000D01*
X63314017Y-91521000D01*
X63013447Y-91645500D01*
X62484000Y-91645500D01*
X62484000Y-91665500D01*
X62230000Y-91665500D01*
X62230000Y-91645500D01*
X62210000Y-91645500D01*
X62210000Y-91391500D01*
X62230000Y-91391500D01*
X62230000Y-90554750D01*
X62484000Y-90554750D01*
X62484000Y-91391500D01*
X63533250Y-91391500D01*
X63692000Y-91232750D01*
X63692000Y-90904691D01*
X63595327Y-90671302D01*
X63416699Y-90492673D01*
X63183310Y-90396000D01*
X62642750Y-90396000D01*
X62484000Y-90554750D01*
X62230000Y-90554750D01*
X62071250Y-90396000D01*
X62013480Y-90396000D01*
X62390728Y-89577687D01*
X63321675Y-87915360D01*
X63817500Y-87173306D01*
X63817500Y-91575476D01*
G04 #@! TD*
M02*
