G04 #@! TF.GenerationSoftware,KiCad,Pcbnew,(5.0.0)*
G04 #@! TF.CreationDate,2018-11-08T23:55:30+01:00*
G04 #@! TF.ProjectId,ESPAIO,45535041494F2E6B696361645F706362,rev?*
G04 #@! TF.SameCoordinates,Original*
G04 #@! TF.FileFunction,Legend,Top*
G04 #@! TF.FilePolarity,Positive*
%FSLAX46Y46*%
G04 Gerber Fmt 4.6, Leading zero omitted, Abs format (unit mm)*
G04 Created by KiCad (PCBNEW (5.0.0)) date 11/08/18 23:55:30*
%MOMM*%
%LPD*%
G01*
G04 APERTURE LIST*
%ADD10C,0.200000*%
%ADD11C,0.450000*%
%ADD12C,0.120000*%
%ADD13C,0.150000*%
%ADD14C,0.127000*%
%ADD15C,0.125000*%
G04 APERTURE END LIST*
D10*
X100266500Y-105600500D02*
X100266500Y-102108000D01*
X107315000Y-105600500D02*
X100266500Y-105600500D01*
X107315000Y-104775000D02*
X107315000Y-105600500D01*
X101092000Y-104775000D02*
X107315000Y-104775000D01*
X101092000Y-102108000D02*
X101092000Y-104775000D01*
X100266500Y-102108000D02*
X101092000Y-102108000D01*
X88900000Y-105918000D02*
X90043000Y-104775000D01*
X89725500Y-106426000D02*
X90551000Y-105600500D01*
X100965000Y-91821000D02*
X100965000Y-100965000D01*
X99441000Y-91630500D02*
X100139500Y-92329000D01*
X99949000Y-90805000D02*
X100965000Y-91821000D01*
X95250000Y-91821000D02*
X96266000Y-90805000D01*
X96075500Y-92329000D02*
X96774000Y-91630500D01*
X96266000Y-90805000D02*
X99949000Y-90805000D01*
X95250000Y-100965000D02*
X95250000Y-91821000D01*
X100139500Y-100965000D02*
X100965000Y-100965000D01*
X100139500Y-92329000D02*
X100139500Y-100965000D01*
X96774000Y-91630500D02*
X99441000Y-91630500D01*
X96075500Y-100965000D02*
X96075500Y-92329000D01*
X95250000Y-100965000D02*
X96075500Y-100965000D01*
X88900000Y-105918000D02*
X88900000Y-107950000D01*
X94996000Y-104775000D02*
X90043000Y-104775000D01*
X94996000Y-103632000D02*
X94996000Y-104775000D01*
X95821500Y-103632000D02*
X94996000Y-103632000D01*
X95821500Y-105600500D02*
X95821500Y-103632000D01*
X90551000Y-105600500D02*
X95821500Y-105600500D01*
X89725500Y-107950000D02*
X89725500Y-106426000D01*
X88900000Y-107950000D02*
X89725500Y-107950000D01*
X70612000Y-108585000D02*
X85217000Y-108585000D01*
X85217000Y-109410500D02*
X71437500Y-109410500D01*
X71437500Y-112458500D02*
X71437500Y-109410500D01*
X63500000Y-112458500D02*
X71437500Y-112458500D01*
X85217000Y-108585000D02*
X85217000Y-109410500D01*
X70612000Y-111633000D02*
X70612000Y-108585000D01*
X63500000Y-111633000D02*
X70612000Y-111633000D01*
X63500000Y-112458500D02*
X63500000Y-111633000D01*
X100076000Y-106489500D02*
X100901500Y-106489500D01*
X94361000Y-106489500D02*
X95186500Y-106489500D01*
X91186000Y-119888000D02*
X92011500Y-119888000D01*
X86233000Y-119888000D02*
X87058500Y-119888000D01*
X100076000Y-108077000D02*
X100076000Y-106489500D01*
X100901500Y-108331000D02*
X92011500Y-117221000D01*
X91186000Y-116967000D02*
X100076000Y-108077000D01*
X100901500Y-106489500D02*
X100901500Y-108331000D01*
X91186000Y-119888000D02*
X91186000Y-116967000D01*
X92011500Y-119888000D02*
X92011500Y-117221000D01*
X95186500Y-108394500D02*
X87058500Y-116522500D01*
X95186500Y-106489500D02*
X95186500Y-108394500D01*
X94361000Y-108077000D02*
X94361000Y-106489500D01*
X86233000Y-116205000D02*
X94361000Y-108077000D01*
X86233000Y-119888000D02*
X86233000Y-116205000D01*
X87058500Y-119888000D02*
X87058500Y-116522500D01*
X70510501Y-121635125D02*
G75*
G02X59010501Y-100593500I13499999J21041625D01*
G01*
X59010500Y-100593500D02*
G75*
G02X97510500Y-121635125I25000000J0D01*
G01*
X70510501Y-121635125D02*
X97510500Y-121635125D01*
X69024500Y-85788500D02*
X69659500Y-86487000D01*
X63944500Y-87185500D02*
X65595500Y-85788500D01*
X63944500Y-94805500D02*
X69659500Y-100901500D01*
X63944500Y-93916500D02*
X69659500Y-100012500D01*
X63944500Y-93027500D02*
X69659500Y-99123500D01*
X63944500Y-92138500D02*
X69659500Y-98234500D01*
X63944500Y-91249500D02*
X69659500Y-97345500D01*
X63944500Y-90360500D02*
X69659500Y-96456500D01*
X63944500Y-89471500D02*
X69659500Y-95567500D01*
X63944500Y-88582500D02*
X69659500Y-94678500D01*
X63944500Y-87693500D02*
X69659500Y-93789500D01*
X64198500Y-87058500D02*
X69659500Y-92900500D01*
X68262500Y-85788500D02*
X69659500Y-87439500D01*
X67373500Y-85788500D02*
X69659500Y-88455500D01*
X66484500Y-85788500D02*
X69659500Y-89344500D01*
X65595500Y-85788500D02*
X69659500Y-90233500D01*
X65087500Y-86233000D02*
X69659500Y-91122500D01*
X64643000Y-86614000D02*
X69659500Y-92011500D01*
X69659500Y-101790500D02*
X63944500Y-95694500D01*
X68897500Y-101790500D02*
X63944500Y-96456500D01*
X68008500Y-101790500D02*
X63944500Y-97345500D01*
X67119500Y-101790500D02*
X63944500Y-98234500D01*
X66230500Y-101790500D02*
X63944500Y-99123500D01*
X65341500Y-101790500D02*
X63944500Y-100139500D01*
X63944500Y-87185500D02*
X63944500Y-101790500D01*
X69659500Y-85788500D02*
X65595500Y-85788500D01*
X69659500Y-101790500D02*
X69659500Y-85788500D01*
X63944500Y-101790500D02*
X69659500Y-101790500D01*
D11*
X67298833Y-100413309D02*
X67298833Y-99175214D01*
X68041690Y-100660928D02*
X65441690Y-99794261D01*
X68041690Y-98927595D01*
X68041690Y-98060928D02*
X65441690Y-98060928D01*
X68041690Y-96575214D01*
X65441690Y-96575214D01*
X65441690Y-95708547D02*
X65441690Y-94222833D01*
X68041690Y-94965690D02*
X65441690Y-94965690D01*
X66679785Y-93356166D02*
X66679785Y-92489500D01*
X68041690Y-92118071D02*
X68041690Y-93356166D01*
X65441690Y-93356166D01*
X65441690Y-92118071D01*
X68041690Y-91003785D02*
X65441690Y-91003785D01*
X68041690Y-89518071D01*
X65441690Y-89518071D01*
X67298833Y-88403785D02*
X67298833Y-87165690D01*
X68041690Y-88651404D02*
X65441690Y-87784738D01*
X68041690Y-86918071D01*
D12*
G04 #@! TO.C,J1*
X91186000Y-85217000D02*
X101346000Y-85217000D01*
X91186000Y-83947000D02*
X91186000Y-91567000D01*
X91186000Y-91567000D02*
X101346000Y-91567000D01*
X101346000Y-91567000D02*
X101346000Y-83947000D01*
X101346000Y-83947000D02*
X91186000Y-83947000D01*
D13*
G04 #@! TO.C,V1*
X63910952Y-114633985D02*
X69156213Y-120161338D01*
X65753402Y-112885564D02*
X70998664Y-118412917D01*
X70998664Y-118412917D02*
X69156213Y-120161338D01*
X65753402Y-112885564D02*
X63910952Y-114633985D01*
G04 #@! TO.C,U4*
X69885000Y-103495000D02*
X69835000Y-103495000D01*
X69885000Y-107645000D02*
X69740000Y-107645000D01*
X64735000Y-107645000D02*
X64880000Y-107645000D01*
X64735000Y-103495000D02*
X64880000Y-103495000D01*
X69885000Y-103495000D02*
X69885000Y-107645000D01*
X64735000Y-103495000D02*
X64735000Y-107645000D01*
X69835000Y-103495000D02*
X69835000Y-102095000D01*
D14*
G04 #@! TO.C,U1*
X89946500Y-79964500D02*
X69946500Y-79964500D01*
X69946500Y-113964500D02*
X89946500Y-113964500D01*
X89946500Y-113964500D02*
X89946500Y-79964500D01*
X69946500Y-79964500D02*
X69946500Y-113964500D01*
D12*
G04 #@! TO.C,K1*
X96907500Y-92262500D02*
X90307500Y-92262500D01*
X105907500Y-92262500D02*
X99307500Y-92262500D01*
X105907500Y-92262500D02*
X105907500Y-112062500D01*
X105907500Y-112062500D02*
X90307500Y-112062500D01*
X90307500Y-112062500D02*
X90307500Y-92262500D01*
X93907500Y-107812500D02*
X96357500Y-107812500D01*
X102307500Y-107812500D02*
X99807500Y-107812500D01*
X92057500Y-97212500D02*
X92057500Y-99712500D01*
X98057500Y-96312500D02*
X98057500Y-95512500D01*
X104057500Y-99712500D02*
X104057500Y-97212500D01*
X98057500Y-103112500D02*
X98057500Y-104612500D01*
X98057500Y-104612500D02*
X100557500Y-109212500D01*
X94457500Y-103112500D02*
X94457500Y-96312500D01*
X98057500Y-103112500D02*
X94457500Y-103112500D01*
X98057500Y-96312500D02*
X94457500Y-96312500D01*
X104057500Y-99712500D02*
X99857500Y-99712500D01*
X96257500Y-99712500D02*
X92057500Y-99712500D01*
X96257500Y-101712500D02*
X99857500Y-97712500D01*
X96257500Y-97712500D02*
X99857500Y-97712500D01*
X99857500Y-97712500D02*
X99857500Y-101712500D01*
X99857500Y-101712500D02*
X96257500Y-101712500D01*
X96257500Y-101712500D02*
X96257500Y-97712500D01*
G04 #@! TO.C,R19*
X63067000Y-100921078D02*
X63067000Y-100403922D01*
X61647000Y-100921078D02*
X61647000Y-100403922D01*
G04 #@! TO.C,R20*
X64210000Y-108834422D02*
X64210000Y-109351578D01*
X62790000Y-108834422D02*
X62790000Y-109351578D01*
G04 #@! TO.C,R21*
X63067000Y-96778578D02*
X63067000Y-96261422D01*
X61647000Y-96778578D02*
X61647000Y-96261422D01*
G04 #@! TO.C,R22*
X63067000Y-92197422D02*
X63067000Y-92714578D01*
X61647000Y-92197422D02*
X61647000Y-92714578D01*
G04 #@! TO.C,R4*
X68409078Y-111200000D02*
X67891922Y-111200000D01*
X68409078Y-109780000D02*
X67891922Y-109780000D01*
G04 #@! TO.C,J3*
X71310500Y-121666000D02*
X96710500Y-121666000D01*
X71310500Y-120396000D02*
X96710500Y-120396000D01*
X71310500Y-114046000D02*
X96710500Y-114046000D01*
X96710500Y-114046000D02*
X96710500Y-121666000D01*
X71310500Y-114046000D02*
X71310500Y-121666000D01*
G04 #@! TO.C,J2*
X90103000Y-79088000D02*
X90103000Y-78285530D01*
X90103000Y-77670470D02*
X90103000Y-76868000D01*
X85088000Y-79088000D02*
X90103000Y-79088000D01*
X85088000Y-76868000D02*
X90103000Y-76868000D01*
X85088000Y-79088000D02*
X85088000Y-78541471D01*
X85088000Y-77414529D02*
X85088000Y-76868000D01*
X84328000Y-79088000D02*
X83568000Y-79088000D01*
X83568000Y-79088000D02*
X83568000Y-77978000D01*
G04 #@! TD*
G04 #@! TO.C,J1*
D13*
X95932666Y-92289380D02*
X95932666Y-93003666D01*
X95885047Y-93146523D01*
X95789809Y-93241761D01*
X95646952Y-93289380D01*
X95551714Y-93289380D01*
X96932666Y-93289380D02*
X96361238Y-93289380D01*
X96646952Y-93289380D02*
X96646952Y-92289380D01*
X96551714Y-92432238D01*
X96456476Y-92527476D01*
X96361238Y-92575095D01*
G04 #@! TO.C,V1*
X69045125Y-113898287D02*
X68549202Y-114828433D01*
X69504028Y-114381870D01*
X69368672Y-115691974D02*
X68975326Y-115277474D01*
X69171999Y-115484724D02*
X69897373Y-114796369D01*
X69728191Y-114825622D01*
X69593550Y-114822097D01*
X69493451Y-114785792D01*
G04 #@! TO.C,U4*
X66889380Y-106331904D02*
X67698904Y-106331904D01*
X67794142Y-106284285D01*
X67841761Y-106236666D01*
X67889380Y-106141428D01*
X67889380Y-105950952D01*
X67841761Y-105855714D01*
X67794142Y-105808095D01*
X67698904Y-105760476D01*
X66889380Y-105760476D01*
X67222714Y-104855714D02*
X67889380Y-104855714D01*
X66841761Y-105093809D02*
X67556047Y-105331904D01*
X67556047Y-104712857D01*
G04 #@! TO.C,U1*
D14*
X87580928Y-111787214D02*
X87580928Y-112404071D01*
X87617214Y-112476642D01*
X87653500Y-112512928D01*
X87726071Y-112549214D01*
X87871214Y-112549214D01*
X87943785Y-112512928D01*
X87980071Y-112476642D01*
X88016357Y-112404071D01*
X88016357Y-111787214D01*
X88778357Y-112549214D02*
X88342928Y-112549214D01*
X88560642Y-112549214D02*
X88560642Y-111787214D01*
X88488071Y-111896071D01*
X88415500Y-111968642D01*
X88342928Y-112004928D01*
G04 #@! TO.C,K1*
D13*
X93860880Y-98972595D02*
X92860880Y-98972595D01*
X93860880Y-98401166D02*
X93289452Y-98829738D01*
X92860880Y-98401166D02*
X93432309Y-98972595D01*
X93860880Y-97448785D02*
X93860880Y-98020214D01*
X93860880Y-97734500D02*
X92860880Y-97734500D01*
X93003738Y-97829738D01*
X93098976Y-97924976D01*
X93146595Y-98020214D01*
G04 #@! TO.C,R19*
D15*
X61908571Y-98935190D02*
X61741904Y-98697095D01*
X61622857Y-98935190D02*
X61622857Y-98435190D01*
X61813333Y-98435190D01*
X61860952Y-98459000D01*
X61884761Y-98482809D01*
X61908571Y-98530428D01*
X61908571Y-98601857D01*
X61884761Y-98649476D01*
X61860952Y-98673285D01*
X61813333Y-98697095D01*
X61622857Y-98697095D01*
X62384761Y-98935190D02*
X62099047Y-98935190D01*
X62241904Y-98935190D02*
X62241904Y-98435190D01*
X62194285Y-98506619D01*
X62146666Y-98554238D01*
X62099047Y-98578047D01*
X62622857Y-98935190D02*
X62718095Y-98935190D01*
X62765714Y-98911380D01*
X62789523Y-98887571D01*
X62837142Y-98816142D01*
X62860952Y-98720904D01*
X62860952Y-98530428D01*
X62837142Y-98482809D01*
X62813333Y-98459000D01*
X62765714Y-98435190D01*
X62670476Y-98435190D01*
X62622857Y-98459000D01*
X62599047Y-98482809D01*
X62575238Y-98530428D01*
X62575238Y-98649476D01*
X62599047Y-98697095D01*
X62622857Y-98720904D01*
X62670476Y-98744714D01*
X62765714Y-98744714D01*
X62813333Y-98720904D01*
X62837142Y-98697095D01*
X62860952Y-98649476D01*
G04 #@! TO.C,R20*
X62329190Y-109414428D02*
X62091095Y-109581095D01*
X62329190Y-109700142D02*
X61829190Y-109700142D01*
X61829190Y-109509666D01*
X61853000Y-109462047D01*
X61876809Y-109438238D01*
X61924428Y-109414428D01*
X61995857Y-109414428D01*
X62043476Y-109438238D01*
X62067285Y-109462047D01*
X62091095Y-109509666D01*
X62091095Y-109700142D01*
X61876809Y-109223952D02*
X61853000Y-109200142D01*
X61829190Y-109152523D01*
X61829190Y-109033476D01*
X61853000Y-108985857D01*
X61876809Y-108962047D01*
X61924428Y-108938238D01*
X61972047Y-108938238D01*
X62043476Y-108962047D01*
X62329190Y-109247761D01*
X62329190Y-108938238D01*
X61829190Y-108628714D02*
X61829190Y-108581095D01*
X61853000Y-108533476D01*
X61876809Y-108509666D01*
X61924428Y-108485857D01*
X62019666Y-108462047D01*
X62138714Y-108462047D01*
X62233952Y-108485857D01*
X62281571Y-108509666D01*
X62305380Y-108533476D01*
X62329190Y-108581095D01*
X62329190Y-108628714D01*
X62305380Y-108676333D01*
X62281571Y-108700142D01*
X62233952Y-108723952D01*
X62138714Y-108747761D01*
X62019666Y-108747761D01*
X61924428Y-108723952D01*
X61876809Y-108700142D01*
X61853000Y-108676333D01*
X61829190Y-108628714D01*
G04 #@! TO.C,R21*
X62035571Y-94841190D02*
X61868904Y-94603095D01*
X61749857Y-94841190D02*
X61749857Y-94341190D01*
X61940333Y-94341190D01*
X61987952Y-94365000D01*
X62011761Y-94388809D01*
X62035571Y-94436428D01*
X62035571Y-94507857D01*
X62011761Y-94555476D01*
X61987952Y-94579285D01*
X61940333Y-94603095D01*
X61749857Y-94603095D01*
X62226047Y-94388809D02*
X62249857Y-94365000D01*
X62297476Y-94341190D01*
X62416523Y-94341190D01*
X62464142Y-94365000D01*
X62487952Y-94388809D01*
X62511761Y-94436428D01*
X62511761Y-94484047D01*
X62487952Y-94555476D01*
X62202238Y-94841190D01*
X62511761Y-94841190D01*
X62987952Y-94841190D02*
X62702238Y-94841190D01*
X62845095Y-94841190D02*
X62845095Y-94341190D01*
X62797476Y-94412619D01*
X62749857Y-94460238D01*
X62702238Y-94484047D01*
G04 #@! TO.C,R22*
X62289571Y-90523190D02*
X62122904Y-90285095D01*
X62003857Y-90523190D02*
X62003857Y-90023190D01*
X62194333Y-90023190D01*
X62241952Y-90047000D01*
X62265761Y-90070809D01*
X62289571Y-90118428D01*
X62289571Y-90189857D01*
X62265761Y-90237476D01*
X62241952Y-90261285D01*
X62194333Y-90285095D01*
X62003857Y-90285095D01*
X62480047Y-90070809D02*
X62503857Y-90047000D01*
X62551476Y-90023190D01*
X62670523Y-90023190D01*
X62718142Y-90047000D01*
X62741952Y-90070809D01*
X62765761Y-90118428D01*
X62765761Y-90166047D01*
X62741952Y-90237476D01*
X62456238Y-90523190D01*
X62765761Y-90523190D01*
X62956238Y-90070809D02*
X62980047Y-90047000D01*
X63027666Y-90023190D01*
X63146714Y-90023190D01*
X63194333Y-90047000D01*
X63218142Y-90070809D01*
X63241952Y-90118428D01*
X63241952Y-90166047D01*
X63218142Y-90237476D01*
X62932428Y-90523190D01*
X63241952Y-90523190D01*
G04 #@! TO.C,R4*
X65829666Y-111351190D02*
X65663000Y-111113095D01*
X65543952Y-111351190D02*
X65543952Y-110851190D01*
X65734428Y-110851190D01*
X65782047Y-110875000D01*
X65805857Y-110898809D01*
X65829666Y-110946428D01*
X65829666Y-111017857D01*
X65805857Y-111065476D01*
X65782047Y-111089285D01*
X65734428Y-111113095D01*
X65543952Y-111113095D01*
X66258238Y-111017857D02*
X66258238Y-111351190D01*
X66139190Y-110827380D02*
X66020142Y-111184523D01*
X66329666Y-111184523D01*
G04 #@! TO.C,D2*
D13*
X91718904Y-92527380D02*
X91718904Y-91527380D01*
X91957000Y-91527380D01*
X92099857Y-91575000D01*
X92195095Y-91670238D01*
X92242714Y-91765476D01*
X92290333Y-91955952D01*
X92290333Y-92098809D01*
X92242714Y-92289285D01*
X92195095Y-92384523D01*
X92099857Y-92479761D01*
X91957000Y-92527380D01*
X91718904Y-92527380D01*
X92671285Y-91622619D02*
X92718904Y-91575000D01*
X92814142Y-91527380D01*
X93052238Y-91527380D01*
X93147476Y-91575000D01*
X93195095Y-91622619D01*
X93242714Y-91717857D01*
X93242714Y-91813095D01*
X93195095Y-91955952D01*
X92623666Y-92527380D01*
X93242714Y-92527380D01*
G04 #@! TO.C,J2*
D15*
X90511333Y-77704190D02*
X90511333Y-78061333D01*
X90487523Y-78132761D01*
X90439904Y-78180380D01*
X90368476Y-78204190D01*
X90320857Y-78204190D01*
X90725619Y-77751809D02*
X90749428Y-77728000D01*
X90797047Y-77704190D01*
X90916095Y-77704190D01*
X90963714Y-77728000D01*
X90987523Y-77751809D01*
X91011333Y-77799428D01*
X91011333Y-77847047D01*
X90987523Y-77918476D01*
X90701809Y-78204190D01*
X91011333Y-78204190D01*
G04 #@! TD*
M02*
